<svg xmlns="http://www.w3.org/2000/svg" viewBox="0 0 400 400" fill="none" shape-rendering="auto"><metadata xmlns:rdf="http://www.w3.org/1999/02/22-rdf-syntax-ns#" xmlns:xsi="http://www.w3.org/2001/XMLSchema-instance" xmlns:dc="http://purl.org/dc/elements/1.1/" xmlns:dcterms="http://purl.org/dc/terms/"><rdf:RDF><rdf:Description><dc:title>Adventurer Neutral</dc:title><dc:creator>Lisa Wischofsky</dc:creator><dc:source xsi:type="dcterms:URI">https://www.figma.com/community/file/1184595184137881796</dc:source><dcterms:license xsi:type="dcterms:URI">https://creativecommons.org/licenses/by/4.0/</dcterms:license><dc:rights>Remix of „Adventurer Neutral” (https://www.figma.com/community/file/1184595184137881796) by „Lisa Wischofsky”, licensed under „CC BY 4.0” (https://creativecommons.org/licenses/by/4.0/)</dc:rights></rdf:Description></rdf:RDF></metadata><mask id="viewboxMask"><rect width="400" height="400" rx="0" ry="0" x="0" y="0" fill="#fff" /></mask><g mask="url(#viewboxMask)"><rect fill="#763900" width="400" height="400" x="0" y="0" /><g transform="translate(-279 -322)"><path d="M589.31 432.68c12.94 7.4 23.4 19.43 28.46 33.5 5.72 14.35 5.72 30.61.54 45.12-1.04 2.9-2.88 5.22-6.28 4.77-15.08-.73-29.98.14-45.06.56-10.03 1.1-20.04 2.15-30 3.79-10.45 1.82-20.62 4.13-30.98 6.08-4.32-.12-5.27-4.23-7.16-7.33-12.06-22.95-8.72-52.48 8.27-72.08 9.79-11.52 23.84-19.77 38.83-22.06a65.12 65.12 0 0 1 43.38 7.65Z" fill="#000"/><path d="M558 429.86c14.45 0 28.8 6.03 39.38 15.78a60.1 60.1 0 0 1 18.5 35.34c1.21 10 .36 20.16-3.44 29.56l-3.28-.37c1.67-5.12 2.73-10.04 1.39-15.4-1.92-10.81-10.74-19.63-21.59-21.4-5.35-.62-10.64-.41-15.57 1.95a26.64 26.64 0 0 0-15.32 19.72c-1.1 5.72-.02 11.42 2.43 16.64a286.92 286.92 0 0 0-34 5.18c-6.73 1.22-13.35 3.24-20.15 4.12-7.35-12.03-10.84-27.07-8.3-41.03a59.67 59.67 0 0 1 18.97-34.92c11.08-9.99 26.04-15.66 40.98-15.17Z" fill="#fff"/><path d="M392.02 447.07a54.82 54.82 0 0 1 33.45 15.5c9.47 9.26 15.55 22.16 16.25 35.43.8 10.74-1.6 21.5-6.91 30.87-1.13 1.88-2.87 4.02-5 4.71-3.03.8-6.6-.16-9.61-.83a304.26 304.26 0 0 0-26.28-5.18c-12.88-.84-26.08-.9-38.96.07-4.8.32-9.78 1.33-14.56 1-2.32-1.1-3.7-4.21-4.57-6.48-3.37-8.83-4.98-18.73-3.32-28.12a54.87 54.87 0 0 1 59.5-46.97Z" fill="#000"/><path d="M401.48 454.74a49.3 49.3 0 0 1 29.58 25.18c4.64 9.38 6.55 20.52 4.31 30.82-1.3 6.2-3.31 12.86-7.13 18l-4.14-.7c4.13-4.48 6.9-9.84 6.82-16.07.38-10.5-7.04-19.98-17.18-22.44-10.75-2.93-22.53 3.32-26.5 13.64-2.56 5.93-1.93 12.1.32 17.99-7.6.3-15.02-.37-22.59.38-7.31.65-14.63 1.12-21.93 1.8-.66-1.14-1.33-2.25-1.9-3.45-7.24-17.69-2.92-38.73 10.39-52.36 12.64-13.18 32.51-18.39 49.95-12.79Z" fill="#fff"/></g><g transform="translate(-279 -322)"><path d="M606.99 397.59c1.52-.4 3.26.6 4.74.97-.11 1.2-.17 2.45-.47 3.61-1.58 1.5-3.57 2.6-5.39 3.78-22.77 14.6-46.18 28.4-70.32 40.63-11.53 5.73-23.34 11.3-35.55 15.44-6.86 2.19-13.72 4.28-21 3.44-3.32-.31-6.17-3.02-6.24-6.43-.04-4.22 3-8.6 5.08-12.15 1.28-2.68 4.5-3.04 7-4.12 37.23-13.75 74.43-27.65 111.66-41.45 3.48-1.23 6.9-2.81 10.5-3.72ZM338.99 432.64c29.88 5.94 60.13 12.03 90.02 18.02 2.27.32 4.6.07 6.85.45 2.45 2.3 3.64 6.2 4.54 9.37 1.17 4.09-.15 8.77-3.9 11-4 2.63-9.92 2.17-14.5 1.9-8.75-1-17.42-3.8-25.69-6.74-19.61-7.16-38.69-16.93-56.97-26.97-1.67-.96-3.68-1.94-4.79-3.55-.38-2.88 1.85-4.16 4.44-3.48Z" fill="#000"/></g><g transform="translate(-279 -322)"><path d="M476.98 628.88c10.2-.52 20.43 4.48 27.46 11.67 5.06 5.1 8.39 11.32 10.89 18 .52 3.48 2.26 6.4-1.37 8.77-8.33.15-16.63.8-24.96 1-12.3.95-24.72.47-36.92 1.94-1.96-1.87-2.34-3.75-2.6-6.38-.98-8.6 1.23-17.86 6.72-24.66a27.94 27.94 0 0 1 20.78-10.34Z" fill="#000"/><path d="M484.48 635.49c12.63 3.1 22.12 13.94 25.5 26.24-18.27.4-36.53 1.67-54.77 2.21-.7-8.6 1.23-17 7.57-23.16 5.82-5.68 13.94-7.02 21.7-5.29Z" fill="#8F2E45"/></g><g transform="translate(-279 -322)"></g></g></svg>