<svg xmlns="http://www.w3.org/2000/svg" viewBox="0 0 400 400" fill="none" shape-rendering="auto"><metadata xmlns:rdf="http://www.w3.org/1999/02/22-rdf-syntax-ns#" xmlns:xsi="http://www.w3.org/2001/XMLSchema-instance" xmlns:dc="http://purl.org/dc/elements/1.1/" xmlns:dcterms="http://purl.org/dc/terms/"><rdf:RDF><rdf:Description><dc:title>Adventurer Neutral</dc:title><dc:creator>Lisa Wischofsky</dc:creator><dc:source xsi:type="dcterms:URI">https://www.figma.com/community/file/1184595184137881796</dc:source><dcterms:license xsi:type="dcterms:URI">https://creativecommons.org/licenses/by/4.0/</dcterms:license><dc:rights>Remix of „Adventurer Neutral” (https://www.figma.com/community/file/1184595184137881796) by „Lisa Wischofsky”, licensed under „CC BY 4.0” (https://creativecommons.org/licenses/by/4.0/)</dc:rights></rdf:Description></rdf:RDF></metadata><mask id="viewboxMask"><rect width="400" height="400" rx="0" ry="0" x="0" y="0" fill="#fff" /></mask><g mask="url(#viewboxMask)"><rect fill="#763900" width="400" height="400" x="0" y="0" /><g transform="translate(-279 -322)"><path d="M550.3 424.38c22.91-2.4 46.2 8 59.5 26.8A65.77 65.77 0 0 1 622.16 491c-.45 10.96-3.32 21.75-8.93 31.21-8.53 14.65-23.03 25.87-39.46 30.13a65.5 65.5 0 0 1-41.5-2.57 65.32 65.32 0 0 1-32.38-28.67c-7.4-12.95-9.7-28.21-7.34-42.87a64.87 64.87 0 0 1 17.9-34.8 65.14 65.14 0 0 1 39.86-19.06Z" fill="#000"/><path d="M549.26 430.26a59.65 59.65 0 0 1 42.62 10.89c15.43 11.05 25 29.84 24.48 48.85.05 22.7-14.12 44.35-34.86 53.52-10.79 4.85-22.8 6.65-34.5 4.52a59.62 59.62 0 0 1-40.35-26.67 61.5 61.5 0 0 1-9.37-29.32 60.42 60.42 0 0 1 13.41-40.36 59.52 59.52 0 0 1 38.57-21.43Z" fill="#fff"/><path d="M381.24 447.1a54.92 54.92 0 0 1 59.96 45.86c1.17 8.18.85 16.9-1.66 24.82A54.86 54.86 0 0 1 380 556.3c-15.8-1.8-30.35-11-39.02-24.28-5.54-8.32-8.46-18.03-9.11-27.97-.3-12.31 3.26-24.64 10.57-34.6a55.1 55.1 0 0 1 38.8-22.35Z" fill="#000"/><path d="M376.5 453.67c18.86-4.33 39.25 3.64 50.42 19.36 7.92 11.03 11.42 25.76 8.17 39.05a48.81 48.81 0 0 1-14.45 25.58 49.5 49.5 0 0 1-29.64 13.28c-19.88 1.83-39.68-9.53-48.32-27.5a49.23 49.23 0 0 1 33.81-69.78Z" fill="#fff"/><path d="M576.41 464.4a24.73 24.73 0 0 1 17.67 1.5c9.98 4.69 16.69 17.38 12.92 28.13a24.34 24.34 0 0 1-17.18 17.45c-6.55 1.67-13.68.8-19.44-2.84-8.89-5.5-13.54-16.73-10.71-26.86a24.59 24.59 0 0 1 16.74-17.38ZM408.46 478.49c12.74-1.61 25.04 8.55 25.32 21.5 1.08 12.37-9.26 24.21-21.78 24.28-12.48.61-23.88-9.65-23.87-22.26-.7-11.8 8.69-22.33 20.33-23.52Z" fill="#000"/></g><g transform="translate(-279 -322)"><path d="M456.01 380.37c2.26-.07 2.85 1.7 2.65 3.64-.5 4.68-.77 9.78-2.32 14.23-1.33.39-2.66.58-4.03.82-1.12-4.8 0-10.22.7-15.09.37-1.71.78-3.82 3-3.6ZM476.79 386.65c.03 3.21-.36 6.36-.67 9.55 41.69.52 83.32.38 125 .75 2.14.04 3.97.86 5.9 1.64-.6 1.48-.22 3.83-2.24 4.1-8.05 1.3-16.58.5-24.74.87-17.35.62-34.7 1-52.06 1.53-17.03.2-34 1.25-51.05 1.42-3.3.39-6.05-2.72-7.2-5.47.02-4.5 1.02-9.15 2.06-13.5 1.28-2.48 2.83-1.67 5-.9ZM439.84 392.18c-.1 4.87-.05 10.81-2.28 15.24-3.22 1.5-7.12 1.79-10.59 2.47-25.65 4.69-51.32 9.34-76.96 14.08-4.24.69-8.7 2.15-13 2.04-2.62-.48-3.32-3.75-.86-5 3.2-1.42 6.95-1.75 10.33-2.59 29.1-6.7 58.15-13.6 87.24-20.32.4-1.91.8-3.81 1.27-5.7 1.61-.21 3.23-.24 4.85-.23Z" fill="#000"/></g><g transform="translate(-279 -322)"><path d="M476.98 628.88c10.2-.52 20.43 4.48 27.46 11.67 5.06 5.1 8.39 11.32 10.89 18 .52 3.48 2.26 6.4-1.37 8.77-8.33.15-16.63.8-24.96 1-12.3.95-24.72.47-36.92 1.94-1.96-1.87-2.34-3.75-2.6-6.38-.98-8.6 1.23-17.86 6.72-24.66a27.94 27.94 0 0 1 20.78-10.34Z" fill="#000"/><path d="M484.48 635.49c12.63 3.1 22.12 13.94 25.5 26.24-18.27.4-36.53 1.67-54.77 2.21-.7-8.6 1.23-17 7.57-23.16 5.82-5.68 13.94-7.02 21.7-5.29Z" fill="#8F2E45"/></g><g transform="translate(-279 -322)"></g></g></svg>