<svg xmlns="http://www.w3.org/2000/svg" viewBox="0 0 400 400" fill="none" shape-rendering="auto"><metadata xmlns:rdf="http://www.w3.org/1999/02/22-rdf-syntax-ns#" xmlns:xsi="http://www.w3.org/2001/XMLSchema-instance" xmlns:dc="http://purl.org/dc/elements/1.1/" xmlns:dcterms="http://purl.org/dc/terms/"><rdf:RDF><rdf:Description><dc:title>Adventurer Neutral</dc:title><dc:creator>Lisa Wischofsky</dc:creator><dc:source xsi:type="dcterms:URI">https://www.figma.com/community/file/1184595184137881796</dc:source><dcterms:license xsi:type="dcterms:URI">https://creativecommons.org/licenses/by/4.0/</dcterms:license><dc:rights>Remix of „Adventurer Neutral” (https://www.figma.com/community/file/1184595184137881796) by „Lisa Wischofsky”, licensed under „CC BY 4.0” (https://creativecommons.org/licenses/by/4.0/)</dc:rights></rdf:Description></rdf:RDF></metadata><mask id="viewboxMask"><rect width="400" height="400" rx="0" ry="0" x="0" y="0" fill="#fff" /></mask><g mask="url(#viewboxMask)"><rect fill="#763900" width="400" height="400" x="0" y="0" /><g transform="translate(-279 -322)"><path d="M619.37 468.64c3.87 2.6 8.11 5.27 11.16 8.82.3 1.66.07 3.43.04 5.12-1.93.6-3.41 1.04-5.4.26-29.1-10.45-62.1-9.7-91.32-.07-12.55 4.26-25.01 10.37-35.3 18.8-1.32 1.05-3.89 2.91-5.3 1.13-1.7-1.56-.63-3.53.2-5.23 7.13-12.76 18-23.13 30.66-30.34 29.02-16.58 66.88-16.42 95.26 1.5ZM405.49 480.39c11.64 2.56 23.55 8.63 31.2 17.94 2.8 3.9 6.47 8.06 5.88 13.18-1.58-.03-3.27.7-4.53-.5a50.83 50.83 0 0 0-13.92-8.1c-15.2-5.92-32.5-7.15-48.6-5.03-12.43 1.78-26.06 5.7-36 13.69-1.9 1.3-3.17 2.8-5.67 1.81a5.46 5.46 0 0 1 .33-6.17c16-21.77 45.05-31.82 71.31-26.81Z" fill="#000"/></g><g transform="translate(-279 -322)"><path d="M613.54 401.51c1.6 1 1.08 2.86 1.24 4.48-.06 11.34-.05 22.7-.12 34.04.32 2.75-2.42 4.22-4.62 5-40 13.74-80.12 27.25-120.05 41.12-2.53.2-2.84-1.75-3.5-3.66-1.64-6-3.31-11.98-5.02-17.95.97 5.75.98 11.66 1.36 17.47-.02 1.44.45 3.94-1 4.85-1.94 1.4-4.06.13-4.59-2.03-3.64-12.73-7.02-25.58-10.66-38.32-.39-1.83-.65-3.9 1.36-4.88 2.11-.5 3.41.47 4 2.44 1.27 4.55 2.55 9.11 3.68 13.7-.73-5.24-.94-10.5-1.18-15.77 0-1.27-.14-3.73 1.66-3.8 1.47-.25 2.98-.37 4.43-.7 41.23-11.75 82.37-23.45 123.6-35.23 3.27-.87 6.02-2.08 9.4-.76ZM324 433.87c13.64 1.39 27.36 1.44 41 2.58 21.04 1.05 42.11 2.67 63.14 3.42 7.8.78 15.61 1.12 23.44 1.68 2.77 2.19 1.08 8.08 1.91 11.33.56-2.97.18-6.9 1.92-9.46a2.85 2.85 0 0 1 4.76 2.56c-2.36 14.03-4.77 28.14-7.02 42.18-.8 2.93-4.48 2.56-5.29-.15-.27-4.92-.21-9.89-.28-14.83-1.03 4.3-1.47 8.69-2.47 12.98-.42 1.64-1.16 2.84-3.1 2.4-39.47-6.89-79.39-14.23-118.86-21.3-1.88-.19-2.83-1.45-3.09-3.25-1.45-7.98-2.5-16.04-4.12-24-.23-1.7-.74-3.13.56-4.57 2.12-2.3 4.72-1.68 7.5-1.57Z" fill="#000"/></g><g transform="translate(-279 -322)"><path d="M473 557.77c14.54-.55 30.84 1.36 43.71 8.62-20.68 8.7-43.2 14.72-65.7 15.48-7.24 0-14.34.28-21.54-.61.7-5.83 3.1-9.58 7.73-13.05 9.92-7.31 23.76-9.76 35.8-10.44Z" fill="#D31E1E"/><path d="M525.03 563.67c.41.78.8 1.57 1.14 2.37.47 2.66-1.95 3.31-3.8 4.34-4 1.77-8.06 3.4-12.13 4.98-17.66 6.32-35.39 11.11-54.24 11.94-6.5.5-12.94.62-19.44.04-4.9-.57-10.15-.63-14.87-2.03-2.35-.88-2.73-3.93-.4-5.07 2.68-.12 5.48.83 8.18 1.02 7.2.89 14.3.61 21.54.61 22.5-.76 45.02-6.79 65.7-15.48 2.76-1.19 5.22-2.6 8.32-2.72Z" fill="#000"/><path d="M510.24 575.36c-1.96 10.16-10.37 17.27-19.22 21.68a56.41 56.41 0 0 1-34 4.71c-8.7-1.77-16.5-6.13-20.46-14.4 6.5.57 12.94.45 19.44-.05 18.85-.83 36.58-5.62 54.24-11.94Z" fill="#D31E1E"/></g><g transform="translate(-279 -322)"></g></g></svg>