<svg xmlns="http://www.w3.org/2000/svg" viewBox="0 0 762 762" fill="none" shape-rendering="auto"><metadata xmlns:rdf="http://www.w3.org/1999/02/22-rdf-syntax-ns#" xmlns:xsi="http://www.w3.org/2001/XMLSchema-instance" xmlns:dc="http://purl.org/dc/elements/1.1/" xmlns:dcterms="http://purl.org/dc/terms/"><rdf:RDF><rdf:Description><dc:title>Adventurer</dc:title><dc:creator>Lisa Wischofsky</dc:creator><dc:source xsi:type="dcterms:URI">https://www.figma.com/community/file/1184595184137881796</dc:source><dcterms:license xsi:type="dcterms:URI">https://creativecommons.org/licenses/by/4.0/</dcterms:license><dc:rights>Remix of „Adventurer” (https://www.figma.com/community/file/1184595184137881796) by „Lisa Wischofsky”, licensed under „CC BY 4.0” (https://creativecommons.org/licenses/by/4.0/)</dc:rights></rdf:Description></rdf:RDF></metadata><mask id="viewboxMask"><rect width="762" height="762" rx="0" ry="0" x="0" y="0" fill="#fff" /></mask><g mask="url(#viewboxMask)"><path d="M396 164.8a224.8 224.8 0 0 1 104.8 42.4c6.2 4.9 12.5 9.4 18 15a225.4 225.4 0 0 1 71.8 149 58.5 58.5 0 0 1 50.9 42.2 71 71 0 0 1-27.6 76.5c-11 7.7-24.5 12-38 11.7-5 0-10-1.6-15-1.8-1.9 2.2-3.3 4.9-4.8 7.3A223.3 223.3 0 0 1 389 609.8c-11 .7-21.9 2-33 .7a223.7 223.7 0 0 1-178.8-342.3A223.4 223.4 0 0 1 352 163.5c14.6-1.4 29.4-.3 44 1.3Z" fill="#000"/><path fill-rule="evenodd" clip-rule="evenodd" d="M498.8 213.2A216 216 0 0 0 363 169c-13-.2-26.2 1.6-39 4a218 218 0 0 0-113.6 365.5 218.5 218.5 0 0 0 260.4 40.2c35-18.8 64.2-47.3 84.4-81.5l-3-1.6c-2.8-1.4-5.7-3-8-5-2.2-2-.3-5.8 2.7-4.7 1.5.7 3 1.6 4.4 2.4a55 55 0 0 0 59.6-3.6 64.5 64.5 0 0 0 25-69.8 53.1 53.1 0 0 0-24-31 52.6 52.6 0 0 0-47-2.8c-1.6.8-3.4 1.5-5 1.3-2.5-.2-2.8-4.2-.6-5.2 8-4 16.5-5.6 25.4-6.4a217 217 0 0 0-72-146.4c-4.4-4-8.7-8.1-13.9-11.3Zm107.6 196.2c2-1.2 1.3-5.1-1.4-5-2 0-4.2.8-6.2 1.6l-1.4.4a95.1 95.1 0 0 0-25.5 12.4c-2.2 2-2.2 4.4.1 6.2a92 92 0 0 0 5.2 2.8 36 36 0 0 1 13 9.2c-.2 1.9-2 3.4-3.4 4.5l-.2.2c-3.9 3-8.8 5-13.6 7-2.5 1-4.9 2-7.1 3.1-1.7.8-2.6 2.2-1.6 3.9 1 2 3.2 1.1 5 .5l.6-.2 5.4-2.3c5.4-2.3 11-4.5 15.4-8 2.7-2.1 5.1-5.1 5.4-8.7-.5-3.4-2.7-5.7-5.3-7.8a83 83 0 0 0-11.6-7.2l-1.1-.6c5.4-3 10.8-5.6 16.6-7.7l5-1.7a52 52 0 0 0 6.7-2.6Z" fill="#ecad80"/><g transform="translate(-161 -83)"><path d="M617.2 468.8c1.2 1.4 2.4 2.4 2.9 4.2a65.5 65.5 0 0 1-79 79.6 65.2 65.2 0 0 1-49-71.6c.6-3.4 1.8-7.2 5.7-8 8.6-1.6 17.5-1.4 26.2-2.4a999 999 0 0 1 73-2c6.8-.4 13.5.4 20.2.2Z" fill="#000"/><path d="m607 474.3 7.5.3a59 59 0 0 1-37.2 70.6 59.3 59.3 0 0 1-79-66c1.8-.7 3.7-1.3 5.7-1.4 16.9-1.4 33.8-2.4 50.8-3-.5 5.2-.2 10.4 2 15.4a26.7 26.7 0 0 0 18.7 15c4.9.9 9.9.6 14.6-1.1 8.2-2.8 14.3-10 16.4-18.3 1-3.9.7-7.6.6-11.5Z" fill="#fff"/><path d="M432 480.7c2-.3 3.8.3 5.8.7a55 55 0 1 1-106 18.6c6.5-3.3 13.1-3.8 20.4-5.5 20.5-4.2 41.1-8.1 61.8-11.3 6-1 12-2 18-2.5Z" fill="#000"/><path d="M433.7 486a54.7 54.7 0 0 1 2.6 16 49.6 49.6 0 0 1-54.3 48.9 49.7 49.7 0 0 1-44.4-47.3c14.4-3.6 29.1-6.2 43.7-9a24.7 24.7 0 0 0 10.1 16 24 24 0 0 0 30-2.3 25 25 0 0 0 7.2-21.7l5.1-.5Z" fill="#fff"/></g><g transform="translate(-161 -83)"><path d="M582.3 370.7c14 7 27.8 17.3 36.6 30.5a3 3 0 0 1-4.3 4.2A104.4 104.4 0 0 0 482 425c-1.6 2-4 3.6-6.2 1.2-1.7-2.6-2.3-6-3.3-9-2 4.8-3.9 9.6-6.2 14.1-1.6 3.2-6 1.1-7-1.4-3.1-6.9-6.3-13.8-9-20.8v17c-.2 2 .2 4.3-2.2 5.1-2 .3-4.3-1-5.3-2.9-3.2-5.8-6.2-11.9-9.4-17.8 1 5.5 2.6 11 3 16.6.2 2-2.2 3.4-4 2.3a132.6 132.6 0 0 0-58.3-10 65.3 65.3 0 0 0-36 12.6c-3 2.4-5.2 5.5-8 8.2-1.6.7-3.2-.3-4.9-.7.1-1.9.2-3.7.8-5.6a86.6 86.6 0 0 1 40-50c13.5-7.4 30.1-9 44.6-3.4a57.4 57.4 0 0 1 27.6 24c2.4-2.9 4.3-6 6.8-8.8 1.6-1.5 4.6-1.5 5.6.8 2.6 5.1 4.7 10.5 7 15.7L462 390c.4-1.5.6-3.2 1.6-4.5 1.7-1.2 3-.2 4.7.1l.8 2.6c2-4.8 4.7-9.1 8.4-12.8A62.1 62.1 0 0 1 512 359c23.9-3.6 48.9 1.2 70.4 11.8Z" fill="#000"/></g><g transform="translate(-161 -83)"><path d="M470 539.6c9.4-.6 18.4 5.2 25.2 11.2 9.6 8.8 17.3 20.1 23.5 31.5 12.6 23.6 20.8 50.1 23.6 76.7.5 4.4 1.5 8.7-2.5 11.9a80 80 0 0 1-23.8 6c-16 1.3-32.5-.9-48-4.9-2.4-.7-4.5-.9-5.4-3.6a210.2 210.2 0 0 1-18-65.9c-1-12.3-1-24.9 1.8-37a44.1 44.1 0 0 1 8.7-18.4c3.7-4.3 9.1-7.4 14.9-7.5Z" fill="#000"/><path d="M474.5 545.6a48 48 0 0 1 23.3 16.3c-14 6-30.9 9.6-45.8 5.8 1.2-6.2 3.8-13 8.2-17.5 3.6-3.8 9.1-6 14.3-4.6Z" fill="#fff"/><path d="M501.9 566.9a178.5 178.5 0 0 1 27.4 56.8c-6.3 1.3-12 4-17.5 7a93.6 93.6 0 0 0-30 27c-2.3 3.6-4.7 6.5-4.6 11-3-.8-6-1.5-9-2-8.4-18-14-37.2-16.9-56.7a124.2 124.2 0 0 1-.3-37c5.4 1 10.5 2.3 16 2 5-.5 10-1 15-2 6.9-1.2 13.3-3.9 19.9-6.1Z" fill="#8F2E45"/><path d="M527.5 629.6c1.5-.6 2.5.2 3.8.7 2.8 11.7 5 23.5 5.6 35.5a90 90 0 0 1-24.6 5.6c-10.5 1-20.3-.7-30.6-1.8a75 75 0 0 1 17.9-23c8-7.1 17.6-13.6 28-17Z" fill="#EA869E"/></g><g transform="translate(-161 -83)"><path d="M611.4 569.4c4.5-2.8 10.3 1.4 8.7 6.6-1.2 4.5-7.3 5.3-10 1.9a6 6 0 0 1 1.3-8.5ZM337.1 571c2.3-1.3 5.7-.6 7.4 1.4 3 3 1 9.6-3.6 9.3-2.1-1.8-3.5-4.4-4.6-7-.6-1.6-.8-2.6.8-3.7ZM650.5 571.6c1.3-.7 3-.5 4.4-.3 3.4.8 5.4 5.1 3.5 8.2-1.6 2.9-5.1 4-8 2.2-3.9-2.2-3.7-8 0-10.1ZM372.2 574.1c4-2.2 9.5 1.2 8.7 5.9-.4 4.7-6.1 6.3-9.5 3.6-3-2.5-2.5-7.4.8-9.5ZM632.5 591.6c4.2-1.5 8.9 1.8 8 6.4-.7 5-7.1 6.3-10.1 2.6-2.6-3-1.3-7.3 2.1-9ZM358 593.8c3.7.4 6.4 4.5 4.8 8-1.2 2.5-3.3 3-5.8 3.8-1.6-2.2-3.7-4.3-4.9-6.8-.8-3.2 3-5.6 6-5Z" fill="#7A624E"/></g><g transform="translate(-161 -83)"></g><g transform="translate(-161 -83)"><path d="M817 157.1c10.5 1.1 22 2.7 31.8 7.2 3 1.4 3.7 5.3.1 6.5-9.1 1.7-17.9 2.8-26.5 6.6a74.2 74.2 0 0 0-15.4 9.2c9.3-.2 18.4 1.2 27.5 2.7 15.4 3.3 31.5 8 45 16.2 2.5 1.3 3.8 4.6 5 7a181 181 0 0 1 16 54.5c1 17 .8 35.6-6 51.5a41.2 41.2 0 0 1-15.6 19.4c-1.4 1.2-3.2-.7-4-1.8a148.7 148.7 0 0 0-46-41 161.9 161.9 0 0 0-77.2-23.6 143 143 0 0 1 35.8 18 169 169 0 0 1 25.4 23.7c1.7 2 1.3 3.2.4 5.4-2 .1-3.2 0-4.8-1-6.9-4.4-14-8.4-21.6-11.4-18-7.7-38.6-12.6-58.2-8.3 8.1 16 14.6 32.7 19.8 50 8.3 27.8 14 57 14.7 86.1 0 7-.4 14.1-1.3 21-.5 2-1 6-3.9 5.5a54 54 0 0 0-33.5 4.8c.3 23-11 46.2-26 63.1-1.7 2-3.3 2.9-5.9 2-2.5-2.1.2-5.3.6-8 1-6.3 1.2-13 1.6-19.4-.1-8 .7-16 .2-24-.3-7 0-14-.5-21-.7-14.6-1.3-29.5-4-43.9-.2-1.2-1.5-1.6-2.4-2.2A91 91 0 0 1 671 399a156.9 156.9 0 0 1-28.7-36.1 181 181 0 0 1-10.6 52.9c-.7 1.5-1.2 4-2.9 5-4 .6-8.8-1.9-12.8-2.9-4.1-1.4-9-2-12.8-4-.6-2.8-.3-6-.2-8.9 1-19.4.4-38.8-3-58-1.7-9-3.1-18.3-5.6-27.2.6 16.4-.3 33-2.2 49.2-1.5 10-3.8 20-6.6 29.8-.7 2.7-1.5 5.5-2.9 8-.9 1.5-1.9 2-3.7 1.6a505 505 0 0 0-160-9.2c-2.2.4-3.1-1.6-4-3.2a103.7 103.7 0 0 1-7.6-58.3c-2.8 8-4.1 16.9-5.2 25.3-1.5 11.2.2 23 2.5 34 .3 1.5.2 3 0 4.5-18 3.4-38.1 8.8-53 20.2-1.2 1-2.9.5-3.8-.6a73.6 73.6 0 0 1-20-38.8c-4.8 8.4-6.5 19-9.5 28.2-.9 2.2-4.3 2.8-5.6.7a25 25 0 0 1-2.2-8.3 68.8 68.8 0 0 1 16-50.2c2.2-17.8 7.8-34 16.9-49.6a193.4 193.4 0 0 0-46.6 10.8 207.7 207.7 0 0 0-60.6 31.4c-10.2 7.2-18.7 15.9-26.6 25.4-1.5 1.8-3.2 2-5.1.7-.9-3.3-.8-7-.8-10.4a211.4 211.4 0 0 1 12.8-71.4 165 165 0 0 1 36-58c7-7 15-12.5 23.6-17.2a73 73 0 0 0-38.2-1.2c-1.8.4-3.1 1-4.4-.7-1.2-2.2.4-3.7 1.9-5a61.9 61.9 0 0 1 22.4-11.6c15-4.5 30.6-5 46-3.8a169 169 0 0 1 71.4 23.6 89 89 0 0 1 34.9 36.1A223.5 223.5 0 0 1 511 212.4c23.5-3.2 47.5-3.4 71 0a234.7 234.7 0 0 1 91.1 31.6 123.9 123.9 0 0 1 39.5-51.4c13.9-11 29.5-21 46.3-26.7a145 145 0 0 1 58-8.8Z" fill="#000"/><g fill="#dba3be"><path d="M820 163.2c6.5.5 12.7 2 19 3.5a94.7 94.7 0 0 0-18.8 5.6 77 77 0 0 0-21.3 14.5c-4.4 1.3-9.3 1-13.8 2.2-2.6 1.6-2.3 4.8.9 5.4 11-1 21.3-3.2 32-1.5 9.7.8 19.4 2.5 28.8 5.2a127 127 0 0 1 25 9.1c2.4 1.4 4.8 2.3 6 5 2.6 4.7 4.6 9.8 6.6 14.8a200 200 0 0 0-67.4-19.2c-24.8-2.2-50.8-1.2-74.2 8-3.4 1.4-7.3 2.7-10 5.2-1.3 2.8 1.3 5.3 4 3.8 15.7-8 32.8-11 50.2-12.2 33.6-1.3 68.4 5.5 98.2 21.2 1.1.7 2.2 1 2.5 2.3 3.5 11.2 6.7 23.2 7.3 34.9 1 9 0 17.8-.8 26.8-1.8 12.6-5.5 25-15.3 33.9a157.3 157.3 0 0 0-42.7-38.9 177 177 0 0 0-67.7-25.6 112.2 112.2 0 0 0-32.5-.2c-2 .5-4.4 2.6-2.8 4.8 1 1.9 2.8 2 4.8 2.3 5.4.8 10.7 2.3 15.8 4.1a124.5 124.5 0 0 1 41.9 25.5 214 214 0 0 0-23.5-9 92.5 92.5 0 0 0-46.4-2.1c-2.4-4.6-6.1-7.9-9.1-12.1-2.3-3.5-5.5-5.8-8.3-8.9a190.9 190.9 0 0 0-30.1-24.5 94.8 94.8 0 0 1 20-32.9c11.5-13.2 26-24 41-33a138.8 138.8 0 0 1 80.7-18ZM280 197.7c10.4-1.2 20.2-.1 30.5 1a153.9 153.9 0 0 1 75.2 31.6 68.2 68.2 0 0 1 20.2 26.2c-24.7 4.5-45 21-59 41.3a189 189 0 0 0-56.8 12.3 215.6 215.6 0 0 0-60.9 33.1 156.3 156.3 0 0 0-20 19.2c0-4.3.1-8.6.6-12.9.9-7.8 1-15 3-22.9 2.3-2.5 5.2-4.7 7.9-6.9 22.5-17.6 50-28.9 78.3-32.2 8.4-.8 16.7-.7 25-.3 3.1-.1 2.8-2.4 2.7-4.7-3.5-1.3-7-1.5-10.7-1.6-17.4-.2-35 2.9-51.5 8.6a157 157 0 0 0-50.1 28c6-26.9 17.3-52.8 35.2-74 9-11 20.2-20 33.2-25.7 2.3-1 4.5-1.8 3.7-5-1.8-1.8-5-2-7.4-2.9a71.7 71.7 0 0 0-31-3.8c9.6-5.2 21.1-7.6 31.9-8.4Z"/><path d="M628.8 229.4c33 11.5 64.2 31 86.4 58.4 5 5.9 8.3 12.5 11.6 19.3 9 18.6 15.6 38.5 20.6 58.4 4.4 17.3 7.6 34.8 9.1 52.5 1 12 1.7 25-.6 36.8a62.3 62.3 0 0 0-31.6 4.2c-.6-2.7-1-5.5-2-8.1-1.2-2.6-5.2-2-5 1.1.4 5 1.8 9.9 1.6 15a91.3 91.3 0 0 1-19.5 51.2c.9-5.3.9-10.8 1.1-16.1.3-17.4.3-34.8-.6-52-1.2-13.3-1.2-27.4-4.6-40.3-2.4-2.6-6.4-3.7-9.2-6a144.7 144.7 0 0 1-38.3-42.7c-2-3.3-4.1-6.7-5.4-10.4-.6-3.5-.6-7.1-1.1-10.7-3-22-9.8-43.4-20.2-63-3.5-6.4-8.2-11.6-13-17-1.2-1.6-2.5-1.3-4.2-1.4l-1.3 2.5c1.4 3.9 4.4 6.1 7 9.4 5.2 6 8.4 12.9 11.7 20 6 13.4 10.4 27.6 13 42 5.3 27.9 1 55.8-7.8 82.5-6.2-1.6-12.2-3.6-18.4-5.4a251.8 251.8 0 0 0-5.8-81.4c-2.2-11.2-5.8-22-9.8-32.7-1-2.4-2.7-1.8-4.8-2-.5 1.5-1 2.9-.8 4.5.6 5 .9 10.1 1.4 15.2 1.6 17.2.2 33.8-1.2 51-1.5 13-4.3 25.8-8.1 38.3-35.2-7.2-71-11.4-106.9-11.8a141.3 141.3 0 0 1-3-42.7 162.8 162.8 0 0 1 22.5-74.4 109 109 0 0 1 14.2-20.9c.7-1 2.1-2.3 1.9-3.6 0-2.5-3.5-3.2-5-1.4a111 111 0 0 0-16 23 163 163 0 0 0-23.4 79.3 144 144 0 0 0 3.5 40.7c-6.2 0-12.5.1-18.7.3-9.2.9-18.4 1-27.6 2.5a99.5 99.5 0 0 1-7.8-53.5c1.4-12.6 4.2-25.1 8.2-37.2.6-2 2.3-4.8 1.2-6.8-1.4-2.1-4.4-1.4-5.3.8-3.4 6.8-6.4 13.8-9 21-5.8 16.8-11.3 33.2-11.5 51.2-.2 9.4 1 18.5 3 27.7a130.1 130.1 0 0 0-49 18.9 70.6 70.6 0 0 1-17-36.1 106 106 0 0 1 5-52 110 110 0 0 1 35.8-50.4 74 74 0 0 1 35.9-15.3c2.3-.3 5.6.2 7.4-1.6.9-2.7-.3-3.5-2.4-4.9a210.4 210.4 0 0 1 47.5-24.9 249 249 0 0 1 166.3-1ZM326.4 362c-.1 3.5.4 7 0 10.5-1.7 4.4-4.1 8.6-6 13-2 4.3-2.9 8.9-4.5 13.3a65 65 0 0 1 10.5-36.8Z"/></g></g><g transform="translate(-161 -83)"></g></g></svg>