<svg xmlns="http://www.w3.org/2000/svg" viewBox="0 0 400 400" fill="none" shape-rendering="auto"><metadata xmlns:rdf="http://www.w3.org/1999/02/22-rdf-syntax-ns#" xmlns:xsi="http://www.w3.org/2001/XMLSchema-instance" xmlns:dc="http://purl.org/dc/elements/1.1/" xmlns:dcterms="http://purl.org/dc/terms/"><rdf:RDF><rdf:Description><dc:title>Adventurer Neutral</dc:title><dc:creator>Lisa Wischofsky</dc:creator><dc:source xsi:type="dcterms:URI">https://www.figma.com/community/file/1184595184137881796</dc:source><dcterms:license xsi:type="dcterms:URI">https://creativecommons.org/licenses/by/4.0/</dcterms:license><dc:rights>Remix of „Adventurer Neutral” (https://www.figma.com/community/file/1184595184137881796) by „Lisa Wischofsky”, licensed under „CC BY 4.0” (https://creativecommons.org/licenses/by/4.0/)</dc:rights></rdf:Description></rdf:RDF></metadata><mask id="viewboxMask"><rect width="400" height="400" rx="0" ry="0" x="0" y="0" fill="#fff" /></mask><g mask="url(#viewboxMask)"><rect fill="#ecad80" width="400" height="400" x="0" y="0" /><g transform="translate(-279 -322)"><path d="M556 424.07a65.28 65.28 0 0 1 38.21 11.72 66.38 66.38 0 0 1 25.55 35.69c2.03 8.44 3.26 17.76 1.73 26.36-.34 2.67-3.16 3.58-5.48 3.72-22.92 1.12-45.4 3.72-68.02 6.37-13.15.92-26.15 2.81-39.22 4.54-4.57.55-8.58 1.7-13.07-.02-4.7-13.26-5.45-27.76-1.52-41.31a65.08 65.08 0 0 1 25.49-35.44A64.79 64.79 0 0 1 556 424.07Z" fill="#000"/><path d="M566.19 430.48a59.9 59.9 0 0 1 38.69 23.59c7.72 10.54 11.98 23.86 11.5 36.93-.17 1.36.17 3.47-.68 4.57-4.17.7-8.5.77-12.7 1.15-18.38 1.14-36.61 3.35-54.88 5.53 1.29-3.37 2.5-6.57 2.63-10.23.4-9.56-5.03-18.9-13.67-23.1-7.93-4.11-18.77-3.17-25.87 2.29-6.37 4.73-10.35 12.82-9.79 20.8 0 6 2.59 11.22 6.37 15.73-2.44.23-4.87.5-7.3.75a58.83 58.83 0 0 1 1.85-43.11 59.17 59.17 0 0 1 32.69-31.45c9.91-4.07 20.61-4.84 31.16-3.45Z" fill="#fff"/><path d="M415.92 455.07a54.98 54.98 0 0 1 22.55 27.5 55.8 55.8 0 0 1 1.3 34.35c-3.95 1.23-7.7.76-11.77.75-25.4-.28-50.64-.3-76 1.43-5.57-.31-13 1.8-17.82-1.36-1.63-6.9-2.98-13.6-2.05-20.72a55.18 55.18 0 0 1 14.86-33.04 55.09 55.09 0 0 1 32-16.6 55.24 55.24 0 0 1 36.93 7.69Z" fill="#000"/><path d="M410.45 458.52c18.96 10.1 29.6 32.88 24.63 53.87-1.89.03-3.78.06-5.67.13 2.51-4.85 3.8-10.1 2.83-15.56-1.25-8.23-7.5-15.16-15.4-17.62a23.63 23.63 0 0 0-14.04.47c-8.31 3.06-14.47 11.22-14.46 20.19-.29 4.37 1.04 8.24 2.82 12.14-15.4.07-30.77 1.03-46.16 1.93-1.75-.18-5.82.57-6.13-1.9-4.43-18.7 3.54-39.04 19.11-50.2 15.1-11.13 36.05-12.56 52.48-3.45Z" fill="#fff"/></g><g transform="translate(-279 -322)"><path d="M568.44 405.96c-.6-2.92-2.48-4.87-4.6-6.82-11.98-10.95-29.88-15.87-45.64-11.58-9.72 2.4-18.51 8.36-23.63 17.06-2.83 5.03-4.78 10.54-3.98 16.4.08.42.13.83.18 1.23.2 1.63.37 3 2.44 3.54 2.17.12 4.4-.29 6.54-.68l.31-.06 6.22-1.2c5.24-1 10.48-2 15.68-3.19a640.08 640.08 0 0 0 44.88-11.08c1.77-.25 1.7-1.62 1.63-3.02l-.03-.6ZM430.1 431.05c-.81-9.8-8.9-17.41-17.88-20.31a39.68 39.68 0 0 0-38.34 9.13c-4.45 4.18-8.39 9.97-9.12 16.14-.08 2.74 2.36 2.78 4.44 2.82.26 0 .52 0 .77.02 3.02-.08 6.05-.14 9.07-.2 9.34-.17 18.7-.35 27.98-1.3 2.4-.21 4.83-.38 7.24-.54 4.26-.3 8.52-.58 12.74-1.14 2.42.03 3.28-2.6 3.1-4.62Z" fill="#000"/></g><g transform="translate(-279 -322)"><path d="M397.16 574.5c18.25-.16 37.53-.27 55.83-.38 15.65-.52 31.34-.22 47-.46 3.82-.04 7.34-.2 10.9 1.4 4.25 1.92 7.85 6.05 7.62 10.93.36 6.4-5.56 10.94-11.5 11.3-33 .13-66 .4-99 .56-4.38-.1-8.12 1-12.36-.48l-.82-2.29c1.66-5.65 2.44-11.14-.14-16.68-1.03-2.03.23-3.9 2.47-3.9Z" fill="#000"/><path d="M510.49 581.58c2.16 1.83 3.27 4.85 1.35 7.29-2.42 3.37-7.56 2.6-11.15 2.54-.04-4-.07-8-.08-12.02 3.35.28 7.2-.21 9.88 2.2ZM401.71 580.18l5.03-.02c.16 4.03.22 8.05.15 12.1h-5.12c.41-4.08.45-8-.06-12.08ZM412.52 580.16c4.52-.07 9.04-.06 13.57-.04.12 4 .23 8 .27 12-4.4.07-8.8.08-13.2.08-.22-4.02-.4-8.03-.64-12.04ZM432.14 579.88c6.32-.04 12.64-.05 18.96-.1.07 4 .1 8.02.1 12.03-6.34-.07-12.65.3-18.97.24-.13-4.06-.17-8.1-.09-12.17ZM456.8 579.78c6.23-.08 12.46-.06 18.7-.14.12 4 .24 8.03.3 12.04-6.2.13-12.4.03-18.6.18-.3-4.03-.4-8.05-.4-12.08ZM481.4 579.5c4.47.17 8.95.07 13.43.03.03 4 .06 8.03.01 12.05-4.43 0-8.85.13-13.28 0-.05-4.04-.29-8.05-.17-12.08Z" fill="#fff"/></g><g transform="translate(-279 -322)"></g></g></svg>