<svg xmlns="http://www.w3.org/2000/svg" viewBox="0 0 762 762" fill="none" shape-rendering="auto"><metadata xmlns:rdf="http://www.w3.org/1999/02/22-rdf-syntax-ns#" xmlns:xsi="http://www.w3.org/2001/XMLSchema-instance" xmlns:dc="http://purl.org/dc/elements/1.1/" xmlns:dcterms="http://purl.org/dc/terms/"><rdf:RDF><rdf:Description><dc:title>Adventurer</dc:title><dc:creator>Lisa Wischofsky</dc:creator><dc:source xsi:type="dcterms:URI">https://www.figma.com/community/file/1184595184137881796</dc:source><dcterms:license xsi:type="dcterms:URI">https://creativecommons.org/licenses/by/4.0/</dcterms:license><dc:rights>Remix of „Adventurer” (https://www.figma.com/community/file/1184595184137881796) by „Lisa Wischofsky”, licensed under „CC BY 4.0” (https://creativecommons.org/licenses/by/4.0/)</dc:rights></rdf:Description></rdf:RDF></metadata><mask id="viewboxMask"><rect width="762" height="762" rx="0" ry="0" x="0" y="0" fill="#fff" /></mask><g mask="url(#viewboxMask)"><path d="M396 164.8a224.8 224.8 0 0 1 104.8 42.4c6.2 4.9 12.5 9.4 18 15a225.4 225.4 0 0 1 71.8 149 58.5 58.5 0 0 1 50.9 42.2 71 71 0 0 1-27.6 76.5c-11 7.7-24.5 12-38 11.7-5 0-10-1.6-15-1.8-1.9 2.2-3.3 4.9-4.8 7.3A223.3 223.3 0 0 1 389 609.8c-11 .7-21.9 2-33 .7a223.7 223.7 0 0 1-178.8-342.3A223.4 223.4 0 0 1 352 163.5c14.6-1.4 29.4-.3 44 1.3Z" fill="#000"/><path fill-rule="evenodd" clip-rule="evenodd" d="M498.8 213.2A216 216 0 0 0 363 169c-13-.2-26.2 1.6-39 4a218 218 0 0 0-113.6 365.5 218.5 218.5 0 0 0 260.4 40.2c35-18.8 64.2-47.3 84.4-81.5l-3-1.6c-2.8-1.4-5.7-3-8-5-2.2-2-.3-5.8 2.7-4.7 1.5.7 3 1.6 4.4 2.4a55 55 0 0 0 59.6-3.6 64.5 64.5 0 0 0 25-69.8 53.1 53.1 0 0 0-24-31 52.6 52.6 0 0 0-47-2.8c-1.6.8-3.4 1.5-5 1.3-2.5-.2-2.8-4.2-.6-5.2 8-4 16.5-5.6 25.4-6.4a217 217 0 0 0-72-146.4c-4.4-4-8.7-8.1-13.9-11.3Zm107.6 196.2c2-1.2 1.3-5.1-1.4-5-2 0-4.2.8-6.2 1.6l-1.4.4a95.1 95.1 0 0 0-25.5 12.4c-2.2 2-2.2 4.4.1 6.2a92 92 0 0 0 5.2 2.8 36 36 0 0 1 13 9.2c-.2 1.9-2 3.4-3.4 4.5l-.2.2c-3.9 3-8.8 5-13.6 7-2.5 1-4.9 2-7.1 3.1-1.7.8-2.6 2.2-1.6 3.9 1 2 3.2 1.1 5 .5l.6-.2 5.4-2.3c5.4-2.3 11-4.5 15.4-8 2.7-2.1 5.1-5.1 5.4-8.7-.5-3.4-2.7-5.7-5.3-7.8a83 83 0 0 0-11.6-7.2l-1.1-.6c5.4-3 10.8-5.6 16.6-7.7l5-1.7a52 52 0 0 0 6.7-2.6Z" fill="#763900"/><g transform="translate(-161 -83)"><path d="M506 461.1c5.5-1.1 11.7 2.5 17 4 22.1 7 45.9 9.5 69 7.7 6.2-.6 12.8-2.4 19-2 6.2.7 10.4 6.1 11 12a65.6 65.6 0 0 1-35.5 64.6 65.4 65.4 0 0 1-92.4-76.2c1.4-5.3 6.8-9 12-10ZM428.2 466.8c3.7 2.2 5.9 6.6 7.8 10.2a55.3 55.3 0 0 1-40.8 79.1 55 55 0 0 1-62.5-45c-.5-3.8-1.5-7.7.2-11.2 1.6-4.2 5.7-7.1 10.1-7.6a123.8 123.8 0 0 0 65.1-24.1 16.5 16.5 0 0 1 20.1-1.4Z" fill="#000"/><path d="M513.4 467.6c12.2 5 25.5 8 38.6 9.8 15.6 2 31.4 2.6 47 .3 3.9-.6 8.1-1.8 12-1.6 2.4.1 4.4 2.7 4.8 5a59.2 59.2 0 0 1-37 63.5 59.6 59.6 0 0 1-79.4-70.2c1.6-6.2 8-10 14-6.8ZM427.8 474.2c4.8 7 7.5 15.3 8.4 23.8a49.8 49.8 0 0 1-50.2 53.2 49.2 49.2 0 0 1-48.2-46.2c-.5-3.2 2.1-6.5 5.2-7 3.3-.6 6.7-.8 10-1.2 18.4-2.2 36.5-9.6 52.1-19.7 3.1-1.9 5.9-4.3 9-6.1 4.4-2.3 11-1.2 13.7 3.2Z" fill="#fff"/><path d="M533.5 497a22.1 22.1 0 0 1 24.1 21c.9 11-7.5 21.2-18.4 22.8-12 2.2-24-6.8-25.4-18.8-2-12.3 7.5-24 19.7-25ZM400.5 505.5c6-1.3 12.6.9 17 5a19.5 19.5 0 1 1-17-5Z" fill="#000"/></g><g transform="translate(-161 -83)"><path d="M614 407a133.9 133.9 0 0 0-92-35 175 175 0 0 0-26.4 3c-1.5 3.3-2.5 6.6-3.5 10l-1.2 3.7v-1.4a170 170 0 0 0-1.4-11.4l-3.2-1.5-.8 1.1c-.6.8-1.3 1.6-1.3 2.4 0 3.8.3 7.5.7 11.3.3 2.8.6 5.5.7 8.3l.2 2.2c.1 2.4.3 5 1.6 6.9 2.9.7 6-.4 9-1.4l3.1-1c19-5.5 39.2-6.8 58.7-4.4 20 2.3 40 8.3 57.4 18.6 2 1 4 1.8 6.2 2.5l1.7-3.4c-2.7-4-6-7.3-9.5-10.5ZM422.3 399.6c0-4.2.2-8.5 0-12.7-.3-2.5-1.9-2.5-3.7-2.6h-1c-1 3.6-1 7.5-1.2 11.3l-.3 5-4.5-11.4-.4-.8c-.4-1.1-.9-2.3-2.2-2.3-2.5 0-5 .4-7.5.9l-3.5.6a128 128 0 0 0-52 20.3 53 53 0 0 0-16.7 18.5c-1.5 3.2-2.9 6.5-1.6 10h.4c1 .4 2.6.9 3.4.1a92 92 0 0 0 2.7-2.1c2-1.7 4.1-3.4 6.5-4.6a152.8 152.8 0 0 1 68.3-15.3c1.9 0 3.7.2 5.5.5 1.9.3 3.7.5 5.6.5 1.8-1.2 1.9-3.6 2-5.7V408c0-2.8 0-5.6.2-8.4Z" fill="#000"/></g><g transform="translate(-161 -83)"><path d="M517 555.4a55.3 55.3 0 0 1 38.6 13c6 5.6 9.7 13.4 9.9 21.6a43.7 43.7 0 0 1-9.9 27.6 88.3 88.3 0 0 1-35.5 26.5c-7.3 2.9-14.4 5.8-22.1 7.3a86.3 86.3 0 0 1-50-5.3 131 131 0 0 1-38.4-24.7 54.5 54.5 0 0 1-13.2-18.9c-2-5.5-2.4-12 1.2-16.9 3.7-5.4 10-7.7 16.2-8.8 12.6-1.8 24.4.4 36.5 3.7a92 92 0 0 1 25-16.2c13-5.7 27.4-9.3 41.7-8.9Z" fill="#000"/><path d="M542.5 566.4c-3.5 2.6-7.4 4.7-10.9 7.3-4.3 4-7.6 11-12.7 14-5.2 1-10.5-3.2-15.2-1-9.3 3.5-18.8 6-28.5 7.9a117.6 117.6 0 0 1-43.6.9c-4.3-1.1-7.2 1.3-11.5 1.9-4.4-4.3-7.5-9.3-12.7-12.6 12.7-5.4 28.7-2 41.6 1.5 4 1.2 6-2.5 8.8-4.5a97.4 97.4 0 0 1 47.2-19.9 68.3 68.3 0 0 1 37.5 4.5Z" fill="#fff"/><path d="M548 570a25.8 25.8 0 0 1 11.8 21c-.2 7.4-3 14-6.8 20.2a45.8 45.8 0 0 0-20-2.8c-14.4.9-28.6 4.4-42 9.6-9 3.7-18 8.3-25.7 14.3-3.7 3-6.4 6.2-8.7 10.4a93.4 93.4 0 0 1-21.6-9.8c-9.9-5.8-19-12.6-26.4-21.4-3.8-4.7-7.6-10.4-7.8-16.5-.2-2.3.9-4.4 1.7-6.6 5.4 3.7 9.4 8.7 14.2 12.9 4 3.4 9.2-.7 13.8 0 5.8 1 11.6 1.5 17.5 1.8 20.4-.2 40.6-4.3 59.6-11.5 4.2.8 10 2.7 14 1 5-2.8 8.6-8.6 12.2-12.9 1.5-1.8 3.8-3 5.7-4.2 3-1.7 5.5-4 8.5-5.6Z" fill="#8F2E45"/><path d="M536 614.2c4.5-.1 9 .6 13.3 1.9a86.5 86.5 0 0 1-35.8 24.4 86.1 86.1 0 0 1-51.3 3.9c2-2.8 4.1-5.3 6.8-7.4a103 103 0 0 1 31-16c11.5-3.8 23.9-6.6 36-6.8Z" fill="#EA869E"/></g><g transform="translate(-161 -83)"></g><g transform="translate(-161 -83)"></g><g transform="translate(-161 -83)"><path d="M495.4 210.6c6.2 3.2 9 9.8 11.8 15.8 10-2 20.6-3 30.8-4.3 25.4-1.8 50.8-2.7 75.3 5.5 12.2 4 23 10 34.3 15.8 17.6 9.3 36.4 18.3 53.6 28.4a158.6 158.6 0 0 1 41 36 450.4 450.4 0 0 1 43.4 78.7c16.7 39 28.4 80.3 33.4 122.4 2.2 18.3 3 36.7 2.2 55.1-1.6 26-6 52.1-17.5 75.8a97.7 97.7 0 0 1-35.4 41.5c-4.2 2.5-8.6 5.2-13.3 6.4-2.3-.8-2.7-2.3-1.7-4.4 2.2-3.8 5-7.2 6.7-11.2 5.4-11.7 9-24.5 11.6-37.1 2.5-11.9 3.8-23.9 2.7-36a254.3 254.3 0 0 1-17 31.4 254 254 0 0 1-48.6 55.4A260.8 260.8 0 0 1 653 724c-3.8 1.8-7.8 3.6-12 4.4-1.7.1-2.6-.7-2.7-2.5 2.2-3.5 6-5.8 8.6-9a88.5 88.5 0 0 0 19.6-38.1c3.5-17.2.5-35-6.3-51-7.3-17-18.4-32.6-30.9-46.2 0 5.1 0 10.3.6 15.4 1 11 1.4 21.5 6.6 31.4 1 1.6 1 4.5-1.5 4.2-8.6-.5-17.2-1-25.8-2.2A150 150 0 0 1 556 609a263.6 263.6 0 0 1-55.7-45.3 261.4 261.4 0 0 1-55.9-105.2c-6-22.7-10.3-46-11.8-69.5-.9-7-.8-14-1-21a309 309 0 0 1 4.5-56 335.9 335.9 0 0 0-54.5 40.6 428.5 428.5 0 0 0-65.8 74.2c-2.1 2.7-2.8 5.9-3.2 9.2a217.2 217.2 0 0 0 109 224.3c3.3 2 7 3.2 9.8 5.6.7 2.4-.7 3.8-1.8 5.7-8.6 12.5-15.6 27-18 42-1 3.2-4.8 2.1-7 1.5a153 153 0 0 1-39.6-19 106.6 106.6 0 0 1-21.4-21.2 277 277 0 0 1-48.4 44.4c-1.6 1.1-3.3 1.4-5.2 1.9-1-2.5-1.1-3.7-.2-6.2 3.5-9.2 3.9-18.3 4.7-28 1.1-26.4 0-52.6-2-79-3-37-7.4-74.3-14.8-110.8a531 531 0 0 1-8-37.7c-1.2-8-1-15.4.3-23.4 3.7-20 12-39 21-57.2 7-15.1 14.6-29.9 22-44.8 10.1-19 19.8-37 33.5-53.6A65.8 65.8 0 0 1 365 264c6-3.2 12.3-4.4 19-5.9 16-3.4 32-8.2 47.8-12.4 9.2-2.4 18.5-4.5 27.7-6.8 4.5-8.8 10-18.3 17.5-24.9 5-4.2 12.2-6.7 18.3-3.5Z" fill="#000"/><g fill="#6a4e35"><path d="M489 214.9c3.5-.3 6.4 2 8.3 4.7 5.3 7.5 7.2 15.7 10.2 23.9 1.1 2.5 3 1.3 5 .9-.4-4.4-1.8-8.5-3.3-12.6 18-3.1 36.5-5.2 54.8-5 14-.3 28.4.7 41.8 4.6 9.7 2.6 18.8 6.6 27.6 11.2 12 6 23.7 12.4 35.7 18.4 13.9 7.3 28.5 14.5 41.2 23.7 10.3 7.9 21 17 28 27.9a441 441 0 0 1 44.6 82.6c18 44.1 30.3 92 32.5 139.8 1 14.1.2 28-1 42a184 184 0 0 1-15.6 59.8 92.6 92.6 0 0 1-34.7 40.4c7.1-15 11.3-30.9 14.3-47.2 2.3-13 2-26 .4-39-.6-3.8.6-7-2.8-9.7-1 .9-2.4 1.6-2.9 2.8-1.4 4-2.2 8.2-4 12-3.8 9.2-8.6 17.9-13.6 26.4a252.7 252.7 0 0 1-56.8 64.2 269.6 269.6 0 0 1-44.5 30.6 88.2 88.2 0 0 0 19.5-51.3c.6-18-5-36.2-13.7-51.9a180.5 180.5 0 0 0-28.4-37.7c-1.2-1.1-2.3-2.4-3.7-3.3-2.3-.2-3.4.6-3.8 2.9a114 114 0 0 0 0 19.5c1 10.6 1.8 20.5 5.3 30.6a129 129 0 0 1-22.9-2c-19.2-4-38-13.6-54.2-24.3a250.4 250.4 0 0 1-50.7-43.4 229.6 229.6 0 0 1-31.2-46.8 301.6 301.6 0 0 1-29.2-94.6c-2-12.6-3-25.3-3.5-38-.8-12 0-24 .6-36a275 275 0 0 1 25-96.5c4-8 8.5-16.2 14.4-22.8 3-3.4 6.6-6.4 11.3-6.8Z"/><path d="M456.6 245.2c-8.6 19-15 39-19 59.5a308 308 0 0 0-49.4 34.5c-23.4 19.9-45 42-63.9 66.1a246.4 246.4 0 0 0-31.5 50.5c-2 4.9-4.2 10-5 15.2.4 2.8 4.1 3.4 5.2 1 1.2-2.6 1.8-5.5 2.8-8.2 2.7-7.3 6.2-14.3 10-21a223 223 0 0 0 118.8 225.7 127.7 127.7 0 0 0-18 41.3c-16.6-6-34.6-13.5-47.6-25.8-4.7-4.5-9.2-9-12.5-14.6-1.3-2-4-2.5-5.6-.4a291.1 291.1 0 0 1-43.5 42c2-9.9 2.8-20 2.9-30 .6-10.7.6-21.3 0-32a899.8 899.8 0 0 0-18.5-160c-2.1-7.8-3.5-15.6-5.1-23.5-1.6-8.2-3-16.1-1.6-24.5 3.8-26.3 16.1-49 27.2-72.5l17.5-34.8c9.7-17.9 19-35 32.2-50.7a58 58 0 0 1 16.1-14c5.2-2.6 10.5-3.6 16-4.9 16.6-3.5 32.9-8.3 49-12.8 7.8-2.1 15.6-4 23.5-6Z"/></g></g><g transform="translate(-161 -83)"></g></g></svg>