<svg xmlns="http://www.w3.org/2000/svg" viewBox="0 0 762 762" fill="none" shape-rendering="auto"><metadata xmlns:rdf="http://www.w3.org/1999/02/22-rdf-syntax-ns#" xmlns:xsi="http://www.w3.org/2001/XMLSchema-instance" xmlns:dc="http://purl.org/dc/elements/1.1/" xmlns:dcterms="http://purl.org/dc/terms/"><rdf:RDF><rdf:Description><dc:title>Adventurer</dc:title><dc:creator>Lisa Wischofsky</dc:creator><dc:source xsi:type="dcterms:URI">https://www.figma.com/community/file/1184595184137881796</dc:source><dcterms:license xsi:type="dcterms:URI">https://creativecommons.org/licenses/by/4.0/</dcterms:license><dc:rights>Remix of „Adventurer” (https://www.figma.com/community/file/1184595184137881796) by „Lisa Wischofsky”, licensed under „CC BY 4.0” (https://creativecommons.org/licenses/by/4.0/)</dc:rights></rdf:Description></rdf:RDF></metadata><mask id="viewboxMask"><rect width="762" height="762" rx="0" ry="0" x="0" y="0" fill="#fff" /></mask><g mask="url(#viewboxMask)"><path d="M396 164.8a224.8 224.8 0 0 1 104.8 42.4c6.2 4.9 12.5 9.4 18 15a225.4 225.4 0 0 1 71.8 149 58.5 58.5 0 0 1 50.9 42.2 71 71 0 0 1-27.6 76.5c-11 7.7-24.5 12-38 11.7-5 0-10-1.6-15-1.8-1.9 2.2-3.3 4.9-4.8 7.3A223.3 223.3 0 0 1 389 609.8c-11 .7-21.9 2-33 .7a223.7 223.7 0 0 1-178.8-342.3A223.4 223.4 0 0 1 352 163.5c14.6-1.4 29.4-.3 44 1.3Z" fill="#000"/><path fill-rule="evenodd" clip-rule="evenodd" d="M498.8 213.2A216 216 0 0 0 363 169c-13-.2-26.2 1.6-39 4a218 218 0 0 0-113.6 365.5 218.5 218.5 0 0 0 260.4 40.2c35-18.8 64.2-47.3 84.4-81.5l-3-1.6c-2.8-1.4-5.7-3-8-5-2.2-2-.3-5.8 2.7-4.7 1.5.7 3 1.6 4.4 2.4a55 55 0 0 0 59.6-3.6 64.5 64.5 0 0 0 25-69.8 53.1 53.1 0 0 0-24-31 52.6 52.6 0 0 0-47-2.8c-1.6.8-3.4 1.5-5 1.3-2.5-.2-2.8-4.2-.6-5.2 8-4 16.5-5.6 25.4-6.4a217 217 0 0 0-72-146.4c-4.4-4-8.7-8.1-13.9-11.3Zm107.6 196.2c2-1.2 1.3-5.1-1.4-5-2 0-4.2.8-6.2 1.6l-1.4.4a95.1 95.1 0 0 0-25.5 12.4c-2.2 2-2.2 4.4.1 6.2a92 92 0 0 0 5.2 2.8 36 36 0 0 1 13 9.2c-.2 1.9-2 3.4-3.4 4.5l-.2.2c-3.9 3-8.8 5-13.6 7-2.5 1-4.9 2-7.1 3.1-1.7.8-2.6 2.2-1.6 3.9 1 2 3.2 1.1 5 .5l.6-.2 5.4-2.3c5.4-2.3 11-4.5 15.4-8 2.7-2.1 5.1-5.1 5.4-8.7-.5-3.4-2.7-5.7-5.3-7.8a83 83 0 0 0-11.6-7.2l-1.1-.6c5.4-3 10.8-5.6 16.6-7.7l5-1.7a52 52 0 0 0 6.7-2.6Z" fill="#f2d3b1"/><g transform="translate(-161 -83)"><path d="M547.5 424.8a65.2 65.2 0 1 1 18.8 129 65.2 65.2 0 0 1-18.8-129Z" fill="#000"/><path d="M549.2 430.3a59.6 59.6 0 1 1 15.3 118.3 59.6 59.6 0 0 1-15.3-118.3Z" fill="#fff"/><path d="M381.2 447.1a55.3 55.3 0 0 1 60 45.4 54.9 54.9 0 0 1-103.8 33.1 54.2 54.2 0 0 1-4.7-32.6 54.5 54.5 0 0 1 48.5-45.9Z" fill="#000"/><path d="M378.2 453.3a49.4 49.4 0 1 1-6 95.5A49.5 49.5 0 0 1 352 467c7.1-7.1 16.3-11.9 26.2-13.7Z" fill="#fff"/><path d="M558.8 456.7c-3.9 4-6.7 8.6-6.7 14.3a20.7 20.7 0 0 0 12.5 20.4c6 2.5 12.3 1.4 17.7-2a36.3 36.3 0 1 1-52.8-31 38.5 38.5 0 0 1 29.3-1.7ZM392 467.9a35 35 0 0 1 22.7 4.3c-3 3-5.4 6.3-5.5 10.8a14.6 14.6 0 0 0 11.8 15.5c3.4.6 6.2-.5 9.4-1.4a34.4 34.4 0 0 1-14.8 31.5 33.3 33.3 0 1 1-23.6-60.7Z" fill="#000"/><path d="M527.4 489.5c2.3-1 4.8-1.3 7 .2 3.5 2.3 3.5 7.5.8 10.5s-7.8 3.2-10.4-.1c-2.8-3.4-1.3-8.7 2.6-10.6ZM379.4 495.6c4.8-1.7 9.4 3.5 7.1 8-1.6 3.6-7 4.3-9.4 1.3-2.6-3-1.5-8 2.3-9.3ZM536.5 504.7c2.5-.8 5.3-.6 7.8.1 6.1 2.4 8 11.2 3.6 16-4 4.8-11.8 5-15.8 0-4.4-5.3-2.4-13.9 4.4-16.1ZM386.5 512.7c3.4-1 7.1-.6 9.6 2.2 3.5 3.4 3.4 9.6-.6 12.6-4 3.5-10.7 1.8-13.2-2.8-2.6-4.3-.6-10.3 4.2-12Z" fill="#fff"/></g><g transform="translate(-161 -83)"><path d="M531 352.3a85.8 85.8 0 0 1 60.6 15.1 82.9 82.9 0 0 1 29 33c1 3-.4 3.8-2.6 5.3-4-2.2-6.9-5.6-10.5-8.3-13-9.7-28-16.3-43.7-20.2-15-3.5-30.6-5-45.8-2.8-4.8.4-9.3 2-14 2.7-2.4.2-5.1-1.2-4.2-4 1.9-4.2 4.2-8.6 7.6-11.7a45 45 0 0 1 23.6-9ZM383 428.8c13.4-.8 26.3-.6 39 4.3 5.9 2.3 11.6 5.9 14 12a14 14 0 0 1-1.8 12.6c-4.9-.7-9.4-2.6-14.1-3.8a203 203 0 0 0-71-6c-5 .4-10 2-14.8 1.8-1.8-.5-1.2-2.2-1-3.5.9-2.5 3.6-3.9 5.8-5.1a119.2 119.2 0 0 1 43.9-12.3Z" fill="#000"/></g><g transform="translate(-161 -83)"><path d="M524.2 555.9c.6 7-.9 13.2-1.6 20.1-2.7 24.2-9.3 48-19.1 70.2-3.7 7.4-6.7 15.8-14 20.4-3.8 2.8-9 2-13.2.1a44 44 0 0 1-12.4-8.6 171.3 171.3 0 0 1-30-42.1c-6.7-12.6-11.6-25.8-17-38.9-1-2.1-1.2-4.1 1-5.4 4.4-.1 8.7 1.4 13.1 1.4 9.9.4 20 .5 29.8-.9 17.7-2 35.1-7.1 51.6-13.9 4.2-1.5 7-4.3 11.8-2.4Z" fill="#000"/><path d="M519 562a298 298 0 0 1-9 48 52 52 0 0 0-26.4 6.6 67 67 0 0 0-27.3 23.9A197.7 197.7 0 0 1 437 609c-5.4-10.1-9.4-20.7-14-31.2 9.4.8 18.5 2 28 1 23.2-.7 46.7-7.7 68-16.8Z" fill="#8F2E45"/><path d="M508.2 616.1a184 184 0 0 1-15.6 38.5 17.5 17.5 0 0 1-6.7 7.4c-4 1.7-9-1.2-12.4-3.5-5.4-3.4-8.6-8.3-12.9-12.7A36 36 0 0 1 471 632c7.8-6.7 17.1-12 27-15 3.4-1 6.7-1.1 10.2-1Z" fill="#EA869E"/></g><g transform="translate(-161 -83)"></g><g transform="translate(-161 -83)"></g><g transform="translate(-161 -83)"><g fill="#000"><path d="M440.2 189.2c1.8-.1 3.6-1 4.7 1 1.6 2 1.1 3.4-.6 5a62.2 62.2 0 0 0-18.3 29.3c30-13.1 63.4-19.6 96-21 9.4-.7 18.6-.7 28 0a281 281 0 0 1 80.5 14.8c18.5 6.5 37 15.6 52 28.3a77.8 77.8 0 0 1 26.5 39.1c3.8-.2 7.3-.4 10.7 1.6 7.3 3.8 12.4 12 16 19.1a182.4 182.4 0 0 1 14.5 46.6c3.3 17.2 4.8 34.6 5.8 52 .1 13 .6 26.1-.8 39-.4 4.3-.3 8.7-1.3 12.9-1 3-4.4 2.7-6.9 3-8.3.3-17.8 1.7-25 6.2-1.3 2.5-1.5 5.6-2.7 8.2-2 2.3-4.8 4-7.2 5.8-6.3 4.3-12.3 9.1-18.5 13.5-1.8 1.1-4.1 2.7-6 .6-1.3-1.2-1.3-2.5-1-4.2 3.2-19.6 2.9-40.2 2.2-60 .1-7.8-.9-15.4-1.3-23.2a53.7 53.7 0 0 1-19.3-5A77.9 77.9 0 0 1 634 369c-6-11-9.4-23.4-8.2-36A1013.5 1013.5 0 0 1 466 346.2c-10.8-.3-21.5 0-32.2-1-14.4-.6-28.6-1.8-42.8-4-11.2-1.7-22.6-4-33.3-8-4.9 5-8 10.7-11.9 16.5-2.3 3.5-4 7.4-6.3 10.7-1 1.6-3.2 1.8-4.4.3-1.2-2.3-1.6-5.2-2.1-7.8a61.6 61.6 0 0 1 4-37c-2.4-4.5-4.6-9-5.8-14a62 62 0 0 1 6.5-44.3c9.3-17.8 24.9-32.5 41.6-43.4a182.2 182.2 0 0 1 61-25Z"/><path d="M340.5 321.2c3.1 4.3 7.2 7.2 11.8 9.7-5 6.6-9.6 13.5-14 20.5-1.2-9-1.5-17.8 1.2-26.6l1-3.6ZM718.2 480.6c2 1.1 1.6 3.3 0 4.6-8 6.8-16.4 13-25 19-1.5 1-3.2 2-4.6.2-1.8-1.7 0-3.3 1.3-4.5 3.7-3 7.8-5.5 11.6-8.4 4-2.9 7.9-6.2 11.8-9.2 1.6-1 3-2.3 5-1.7Z"/></g><path d="M436 196.1a63 63 0 0 0-15.4 27c-.3 2-1.3 4.7-.2 6.5 1.5.8 3 1.2 4.6 1.7 41.8-19 88.5-24.5 134-21.5 29 2.2 58.4 8.3 85.1 20.1 15.2 6.8 30.4 16 42 28a63.7 63.7 0 0 1 18 33l1.8 1.3c4.1-.7 7.6-1.8 11.5.4 6.4 3.7 10.8 11.5 14 18a198.7 198.7 0 0 1 14.4 50.4c2 12.6 3.5 25.3 4 38 .1 8 .9 16 .6 24-.4 10.5-.6 21-1.8 31.4-7.8.3-15.2 1-22.6 3.7-2.8 1-6.4 2.2-8.4 4.5-1.5 2.7-2 6-3 9L693 487.2c1.6-9.3 1.4-18.7 2.1-28.2.5-9.4-.6-18.6-.7-28-.2-5.4-.2-10.7-.8-16-.5-4.7-.5-9-2-13.5-5.7-.8-11.2-1-16.6-3.2a70.6 70.6 0 0 1-37-34.2 52 52 0 0 1-5.5-34.7c-2.6-3.4-7.3-2.2-10.9-1.7A964.5 964.5 0 0 1 447 340c-10-.1-20-.5-30-1.4-17-1.5-34.6-3.6-51-8.6a57 57 0 0 1-17-8 47.7 47.7 0 0 1-12.7-43c3-16 12.6-30.5 23.9-41.8a165 165 0 0 1 75.7-41Z" fill="#dba3be"/></g><g transform="translate(-161 -83)"></g></g></svg>