<svg xmlns="http://www.w3.org/2000/svg" viewBox="0 0 762 762" fill="none" shape-rendering="auto"><metadata xmlns:rdf="http://www.w3.org/1999/02/22-rdf-syntax-ns#" xmlns:xsi="http://www.w3.org/2001/XMLSchema-instance" xmlns:dc="http://purl.org/dc/elements/1.1/" xmlns:dcterms="http://purl.org/dc/terms/"><rdf:RDF><rdf:Description><dc:title>Adventurer</dc:title><dc:creator>Lisa Wischofsky</dc:creator><dc:source xsi:type="dcterms:URI">https://www.figma.com/community/file/1184595184137881796</dc:source><dcterms:license xsi:type="dcterms:URI">https://creativecommons.org/licenses/by/4.0/</dcterms:license><dc:rights>Remix of „Adventurer” (https://www.figma.com/community/file/1184595184137881796) by „Lisa Wischofsky”, licensed under „CC BY 4.0” (https://creativecommons.org/licenses/by/4.0/)</dc:rights></rdf:Description></rdf:RDF></metadata><mask id="viewboxMask"><rect width="762" height="762" rx="0" ry="0" x="0" y="0" fill="#fff" /></mask><g mask="url(#viewboxMask)"><path d="M396 164.8a224.8 224.8 0 0 1 104.8 42.4c6.2 4.9 12.5 9.4 18 15a225.4 225.4 0 0 1 71.8 149 58.5 58.5 0 0 1 50.9 42.2 71 71 0 0 1-27.6 76.5c-11 7.7-24.5 12-38 11.7-5 0-10-1.6-15-1.8-1.9 2.2-3.3 4.9-4.8 7.3A223.3 223.3 0 0 1 389 609.8c-11 .7-21.9 2-33 .7a223.7 223.7 0 0 1-178.8-342.3A223.4 223.4 0 0 1 352 163.5c14.6-1.4 29.4-.3 44 1.3Z" fill="#000"/><path fill-rule="evenodd" clip-rule="evenodd" d="M498.8 213.2A216 216 0 0 0 363 169c-13-.2-26.2 1.6-39 4a218 218 0 0 0-113.6 365.5 218.5 218.5 0 0 0 260.4 40.2c35-18.8 64.2-47.3 84.4-81.5l-3-1.6c-2.8-1.4-5.7-3-8-5-2.2-2-.3-5.8 2.7-4.7 1.5.7 3 1.6 4.4 2.4a55 55 0 0 0 59.6-3.6 64.5 64.5 0 0 0 25-69.8 53.1 53.1 0 0 0-24-31 52.6 52.6 0 0 0-47-2.8c-1.6.8-3.4 1.5-5 1.3-2.5-.2-2.8-4.2-.6-5.2 8-4 16.5-5.6 25.4-6.4a217 217 0 0 0-72-146.4c-4.4-4-8.7-8.1-13.9-11.3Zm107.6 196.2c2-1.2 1.3-5.1-1.4-5-2 0-4.2.8-6.2 1.6l-1.4.4a95.1 95.1 0 0 0-25.5 12.4c-2.2 2-2.2 4.4.1 6.2a92 92 0 0 0 5.2 2.8 36 36 0 0 1 13 9.2c-.2 1.9-2 3.4-3.4 4.5l-.2.2c-3.9 3-8.8 5-13.6 7-2.5 1-4.9 2-7.1 3.1-1.7.8-2.6 2.2-1.6 3.9 1 2 3.2 1.1 5 .5l.6-.2 5.4-2.3c5.4-2.3 11-4.5 15.4-8 2.7-2.1 5.1-5.1 5.4-8.7-.5-3.4-2.7-5.7-5.3-7.8a83 83 0 0 0-11.6-7.2l-1.1-.6c5.4-3 10.8-5.6 16.6-7.7l5-1.7a52 52 0 0 0 6.7-2.6Z" fill="#f2d3b1"/><g transform="translate(-161 -83)"><path d="M558.2 453.2c11.5-1.6 23.7.2 34 5.5 7.6 4 14.3 10.3 18.1 18a32.5 32.5 0 0 1 2.1 21.8c-2 8-7.2 15.2-13.7 20.2a57.4 57.4 0 0 1-54.2 7.8 43.6 43.6 0 0 1-21.4-16.6 34.2 34.2 0 0 1-5.4-15.9 34.5 34.5 0 0 1 10.3-26c8-8.4 18.9-13 30.2-14.8Z" fill="#000"/><path d="M559.2 459.1c14-2 29.7 1.6 39.8 11.9 6.6 6.5 10.4 17 7.7 26-2 8.2-7.7 14.5-14.6 19.2a52 52 0 0 1-43 5.6c-8.7-2.7-17.1-8.2-21.8-16.1-3-5-4.1-11-3.5-16.7.7-6.8 4.5-13.1 9.3-17.9 7-6.7 16.5-10.7 26-12Z" fill="#fff"/><path d="M369.5 468.7c17.6-2.7 37.9 3.4 47.7 19.1 5.5 8.6 6.3 20 2 29.2-3 6.3-8 11.6-13.8 15.4a52 52 0 0 1-24.4 7.8 48.4 48.4 0 0 1-39.4-15.8 31.3 31.3 0 0 1-7.5-22.4c.5-8.3 4.6-15.7 10.5-21.4 6.9-6.5 15.6-10.3 24.9-11.9Z" fill="#000"/><path d="M376.6 474.1c9.6-.3 19.5 2.3 27.3 8 5.2 3.8 9.5 9.2 11.2 15.4a25 25 0 0 1-2.1 18.6 36.6 36.6 0 0 1-23 16.7 44.9 44.9 0 0 1-40.8-9 26.8 26.8 0 0 1-9.2-22.3c.7-5.4 3.1-10.6 6.8-14.7a41 41 0 0 1 29.8-12.7Z" fill="#fff"/><path d="M551.5 477.6a16 16 0 0 1 19.9 18.4A15.8 15.8 0 0 1 556 509a15.9 15.9 0 0 1-4.5-31.3Z" fill="#000"/><path d="M553.6 483.2c4-.7 7.8.6 10.2 4 3 4 2.3 9.8-1.4 13.2-4.4 4-11.8 3.4-15.1-1.7a10 10 0 0 1 6.3-15.5Z" fill="#fff"/><path d="M618.7 484.2c1.7.3 3.6-.2 4.6 1.4 1.6 2.5 2.4 5.6 2.9 8.5a35 35 0 0 1-9.8 29.2c-3.3 3-7.9 6-12.4 6.2-2.8 0-4.3-2.7-2.4-4.8 3.3-1.7 6.6-2.2 9.5-4.6 6.3-5.3 9.6-14 9.6-22.1 0-4-1.6-7.2-2.7-11l.7-2.8ZM380.4 488.5c4.5-.9 9.2.5 12.7 3.3a17 17 0 0 1 4.7 19.8c-2.6 5.9-8.2 10.2-14.8 10.2-8.5.6-16-6.4-16.4-14.8-1-8.7 5.2-17 13.8-18.5Z" fill="#000"/><path d="M379.5 494.8c5.1-2 11 .6 13 5.7 2.8 6.4-1.6 14.7-8.7 15.4a9.9 9.9 0 0 1-10-4.8 11.4 11.4 0 0 1 5.7-16.3Z" fill="#fff"/><path d="M330.4 503.6c.5 4-1.4 7.4-1.6 11.4-.3 6 2.4 12.1 7.3 15.9 2.4 1.9 5 2.8 7.7 4.3 2 .8 1.9 2 1.6 3.9-1.5 1.8-3.3 1.4-5.3.8a26.3 26.3 0 0 1-16-16 25 25 0 0 1 1.4-19.4c1.3-1.9 3-.9 5-.9Z" fill="#000"/></g><g transform="translate(-161 -83)"><path d="M613.5 401.5c1.6 1 1.1 2.9 1.3 4.5l-.1 34c.3 2.8-2.5 4.2-4.7 5l-120 41.1c-2.5.2-2.9-1.7-3.5-3.6l-5-18c1 5.8 1 11.7 1.3 17.5 0 1.4.5 4-1 4.9-2 1.4-4 0-4.6-2l-10.6-38.4c-.4-1.8-.7-3.9 1.3-4.9 2.2-.5 3.5.5 4 2.5 1.3 4.5 2.6 9 3.7 13.7-.7-5.3-1-10.5-1.2-15.8 0-1.3-.1-3.7 1.7-3.8l4.4-.7 123.6-35.2c3.3-.9 6-2.1 9.4-.8ZM324 433.9c13.6 1.4 27.4 1.4 41 2.6 21 1 42.1 2.6 63.1 3.4 7.8.8 15.6 1 23.5 1.7 2.8 2.1 1 8 1.9 11.3.6-3 .2-7 2-9.5 2-1.8 5-.1 4.7 2.6-2.4 14-4.8 28.1-7 42.2-.8 2.9-4.5 2.5-5.3-.2-.3-5-.2-9.9-.3-14.8-1 4.3-1.5 8.7-2.5 13-.4 1.6-1.2 2.8-3 2.4l-119-21.3c-1.8-.2-2.8-1.5-3-3.3-1.5-8-2.6-16-4.2-24-.2-1.7-.7-3.1.6-4.6 2.1-2.2 4.7-1.6 7.5-1.5Z" fill="#000"/></g><g transform="translate(-161 -83)"><path d="M519 572.7c12.3.2 24.5 2 36 6.5a92.6 92.6 0 0 1 43.8 35c1.2 1.5.8 3.5 1 5.4-7.3.5-14.5 0-21.7.7.1 7.4 0 14.4-3.8 21-2.1 3.8-5.6 7.2-10.3 7.2-4.5 0-8.2-3.5-10.4-7.1a44.2 44.2 0 0 1-4.4-21c-25.4 0-50.8.2-76.2.4-7.4-.3-14.6.6-22 .4-7.5-.2-14.2.8-21.5-.8 0-1.6-.5-4 .6-5.3a123.3 123.3 0 0 1 88.9-42.4Z" fill="#000"/><path d="M509 579.5c7-.6 14-.5 21 0a89 89 0 0 1 48.7 20.8c-11.3.4-22.5.6-33.7.6-31 1.1-62 .8-93 1.8 6.2-4.2 12.2-8.4 18.9-11.7 11.9-6 24.8-10 38-11.5Z" fill="#8F2E45"/><path d="M569 606.4c5.2 0 10.6-.6 15.7 0 2.4 2 4.3 4.8 6.3 7.1-5.9.6-11.9 0-17.7.8-1.2 7.1-.3 16.6-3.6 23.4-1.2 2.7-3.3 4-5.7 5.6-2.3-1.6-4.5-3-5.7-5.6-3.4-6.8-3.3-15.7-4-23.2-5.8-.5-11.5 0-17.3-.1-32.8.2-65.6.2-98.4.5 2.2-2 4.6-5.6 7.5-6.2 18-.8 36-.3 54-1.1 11-.5 22-.1 33-.6 12-.3 24-.1 36-.6Z" fill="#6FA942"/></g><g transform="translate(-161 -83)"><path d="M489.1 525.9c6.3 4.7 7.6 15 14 20s14.5 7.3 22.2 3.6c1 1.3 2.3 2.3 1.3 4.1-4 7-11.2 10.4-18.7 12.5a40.6 40.6 0 0 1-29.4-2.6c-6.3-3.5-9.9-9.1-14.4-14.5a59.5 59.5 0 0 1-20.4 18.8c-5.8 3-13.3 5-19.8 3.3-6.3-1.8-12-6.1-12.2-13.1-.2-2.4 1.2-2.7 3.1-3.1 1.3 1.3 2.3 2.7 4.2 3 3.5.7 7-1.2 9.1-3.8 5.4-6.4 4.5-17 10.4-22.6 6.2-5.9 16.9-8.1 24.5-4 7.7-5.2 18-6.9 26.1-1.6Z" fill="#000"/></g><g transform="translate(-161 -83)"></g><g transform="translate(-161 -83)"><g fill="#000"><path d="M453.2 221.6c2.2-.3 5-1 7 .2 1.2 1.4 1.4 3.2.2 4.7-1.8 2.1-4.2 3.8-6.4 5.5a75.8 75.8 0 0 0-9.3 9 387.8 387.8 0 0 1 129.3-7.7c29.1 3.2 59.2 9.6 86 21.7 14.5 6.6 29 15.3 39.9 27.1a52 52 0 0 1 14.7 31.8c4 .8 8 1.6 11.5 4A51 51 0 0 1 743 340a159 159 0 0 1 11.3 44.7c1.4 14.2 2.2 28.4 1.4 42.7-.8 9.5-1.3 19-3 28.5-.2 1.3-.3 2.5-1.8 3-6.7.7-14.4.7-20.7 3.2-9 3.5-17.6 7.2-25.7 12.3-1.3.7-3 2-4.5 1.7a3 3 0 0 1-2.3-4.5c2.5-5.4 5.7-10.5 8.7-15.8-6 2.7-12.1 5.1-17.7 8.6-1.7-1.2-3.4-2.1-3.6-4.5-.8-10.4-.6-21-1.6-31.4-1.4-1.3-3-2.4-4.6-3.5a167 167 0 0 1-18.1-13.9c-1.6-1.4-3-3-4-5a238.6 238.6 0 0 1-20-74.8c-7.9 0-15.5-.6-23.3-1.6 2 1.8 4.8 3.5 5.6 6.2-.6 2.4-2.5 3-4.5 3.9a139 139 0 0 1-51.6 8.3c-28.2-.3-56.4-6.5-82.4-17.3 3.5 4 7 7.9 11.2 11.3 1.5 1.4 3.6 2.9 4.4 4.8-.4 2.8-2.4 4.2-5.2 3.9-17.5-1.6-34.6-5-52-8.3 0 5.9 1.3 11.6 1.6 17.5-.5 2-3 2.4-4.6 1.4-1.5-1-2.8-2.2-4-3.4-9-8.6-17.7-17-25.4-26.6-1.4-1.5-2.7-3.7-4.8-3.9-7.5-1-15.2-2.3-22.8-2.5-4-.3-8.1 2.5-11.7 4.1-4 2.2-8.7 3.9-12.2 6.8-3.8 4.6-7 9.9-10.3 14.9a3 3 0 0 1-1.8 1.4 40.7 40.7 0 0 1-22.4-11A74 74 0 0 1 303 310c-.6-2-1.3-4.9.9-6.2 1.8-1.2 4.5.3 6.3 1 6.4 3.1 12.3 6.6 19.3 8.3a32 32 0 0 1-2-18.9 65.8 65.8 0 0 1 24.4-40.3c3-2.3 6.4-5 10-6.2 2.9-1 5.2 1.6 4.6 4.3-1.3 5.3-3.6 10.3-5 15.6a185 185 0 0 1 40-29.2 182 182 0 0 1 51.7-16.8Z"/><path d="M712.3 472.3c2.2-1.2 4.7 1.3 3.7 3.5-1.6 1.8-4 3-6.1 4.1-6.1 3.3-12 6.8-17.9 10.4l-2.7-1.1c.2-1.3 0-2.9 1.1-3.8 3-2.6 7-4.4 10.4-6.6 3.9-2.1 7.6-4.6 11.5-6.5Z"/></g><path d="M450.1 228c-5.2 4.8-10 9.5-13.8 15.4-.8 1.2-1 2.4-.7 3.8 1.9 1.8 3.7 1 6 .6 40.5-10.5 83.7-13 125.4-9.5 29.5 2.8 59.9 8.8 87.2 20.5a127.8 127.8 0 0 1 38.1 23.9A51 51 0 0 1 708 309c.7 2.9.1 6.7 1.7 9.3 1.4 2.4 4 1.6 6.3 2 5 .2 9.8 4 13 7.7a77 77 0 0 1 13.5 27.5c3.9 13.1 6 26.9 7 40.5 1 19.3.7 38.7-2.1 57.9-6.6.8-12.9.9-19.2 3.2-7.4 1.8-14.3 5.9-21.2 9.1 2-3.7 4.4-7.4 6-11.3a6 6 0 0 0 0-4.8c-2-1.6-4-1-6.1-.2-5.5 2.2-10.8 4.7-16 7.3-1-10.2-.9-21-1.8-31.1-2.4-3-6.2-4.7-9.2-7-5.8-4.1-12.3-8.3-17.1-13.5a292 292 0 0 1-15-42.6 171.7 171.7 0 0 1-5.7-35c-1-1.4-3.4-2-5-2-9-.3-18.3-.4-27-2.3-2.4-.5-4.5-.8-6.1-2.6-3.5-3.2-6.3-7.4-10.2-10-3-.6-4.4 2.3-2.6 4.6 6.3 6.8 12.9 13.3 19.9 19.3-15 5.7-32 7.6-48.1 7.6-30-.7-60.1-7.6-87.4-20.3-2.4-1-3.8-1-6 .4-1.3 2.5.2 4 1.7 6 4.6 5.5 9.8 10.7 14.8 15.8-15-1.5-30.1-4.5-45-7.2-2.9-.5-5.9-.2-7 2.9-1 4.1 0 9 .6 13.2-7.5-7.5-15.2-15-21.9-23.2-5.3-6.4-10.4-13-15.4-19.6-1-1.1-2.6-2.9-4.2-2.3-2 .6-2.2 3-1.2 4.6 2 3 4.5 5.9 6.6 8.9-6-1.3-12-1.4-18-2.2-2.4-.2-4.4-.7-6.6.4-7.4 3.4-14.7 7.1-21.8 11.1-4.2 4.3-7.2 10.1-10.7 15-6-1.2-11.7-4.1-16.2-8.4a66.7 66.7 0 0 1-16.2-27.2c6.7 3.1 14.4 7.6 21.9 7.8 2.2 0 5 .2 6.3-2 1.2-1.8-.4-3-1.3-4.4-3.4-4.2-3.4-10.1-3-15.3A62 62 0 0 1 360 255c-2 6.4-4.6 13.3-5 20-.2 3.1 3.3 4.2 5.2 2.2a185.3 185.3 0 0 1 42.3-32.8c15-8 31-13 47.7-16.4Z" fill="#cb6820"/></g><g transform="translate(-161 -83)"></g></g></svg>