<svg xmlns="http://www.w3.org/2000/svg" viewBox="0 0 762 762" fill="none" shape-rendering="auto"><metadata xmlns:rdf="http://www.w3.org/1999/02/22-rdf-syntax-ns#" xmlns:xsi="http://www.w3.org/2001/XMLSchema-instance" xmlns:dc="http://purl.org/dc/elements/1.1/" xmlns:dcterms="http://purl.org/dc/terms/"><rdf:RDF><rdf:Description><dc:title>Adventurer</dc:title><dc:creator>Lisa Wischofsky</dc:creator><dc:source xsi:type="dcterms:URI">https://www.figma.com/community/file/1184595184137881796</dc:source><dcterms:license xsi:type="dcterms:URI">https://creativecommons.org/licenses/by/4.0/</dcterms:license><dc:rights>Remix of „Adventurer” (https://www.figma.com/community/file/1184595184137881796) by „Lisa Wischofsky”, licensed under „CC BY 4.0” (https://creativecommons.org/licenses/by/4.0/)</dc:rights></rdf:Description></rdf:RDF></metadata><mask id="viewboxMask"><rect width="762" height="762" rx="0" ry="0" x="0" y="0" fill="#fff" /></mask><g mask="url(#viewboxMask)"><path d="M396 164.8a224.8 224.8 0 0 1 104.8 42.4c6.2 4.9 12.5 9.4 18 15a225.4 225.4 0 0 1 71.8 149 58.5 58.5 0 0 1 50.9 42.2 71 71 0 0 1-27.6 76.5c-11 7.7-24.5 12-38 11.7-5 0-10-1.6-15-1.8-1.9 2.2-3.3 4.9-4.8 7.3A223.3 223.3 0 0 1 389 609.8c-11 .7-21.9 2-33 .7a223.7 223.7 0 0 1-178.8-342.3A223.4 223.4 0 0 1 352 163.5c14.6-1.4 29.4-.3 44 1.3Z" fill="#000"/><path fill-rule="evenodd" clip-rule="evenodd" d="M498.8 213.2A216 216 0 0 0 363 169c-13-.2-26.2 1.6-39 4a218 218 0 0 0-113.6 365.5 218.5 218.5 0 0 0 260.4 40.2c35-18.8 64.2-47.3 84.4-81.5l-3-1.6c-2.8-1.4-5.7-3-8-5-2.2-2-.3-5.8 2.7-4.7 1.5.7 3 1.6 4.4 2.4a55 55 0 0 0 59.6-3.6 64.5 64.5 0 0 0 25-69.8 53.1 53.1 0 0 0-24-31 52.6 52.6 0 0 0-47-2.8c-1.6.8-3.4 1.5-5 1.3-2.5-.2-2.8-4.2-.6-5.2 8-4 16.5-5.6 25.4-6.4a217 217 0 0 0-72-146.4c-4.4-4-8.7-8.1-13.9-11.3Zm107.6 196.2c2-1.2 1.3-5.1-1.4-5-2 0-4.2.8-6.2 1.6l-1.4.4a95.1 95.1 0 0 0-25.5 12.4c-2.2 2-2.2 4.4.1 6.2a92 92 0 0 0 5.2 2.8 36 36 0 0 1 13 9.2c-.2 1.9-2 3.4-3.4 4.5l-.2.2c-3.9 3-8.8 5-13.6 7-2.5 1-4.9 2-7.1 3.1-1.7.8-2.6 2.2-1.6 3.9 1 2 3.2 1.1 5 .5l.6-.2 5.4-2.3c5.4-2.3 11-4.5 15.4-8 2.7-2.1 5.1-5.1 5.4-8.7-.5-3.4-2.7-5.7-5.3-7.8a83 83 0 0 0-11.6-7.2l-1.1-.6c5.4-3 10.8-5.6 16.6-7.7l5-1.7a52 52 0 0 0 6.7-2.6Z" fill="#ecad80"/><g transform="translate(-161 -83)"><path d="M559 424.1a65.3 65.3 0 0 1 57.5 38.4l23.8-15c1.3 1 2.4 2.2 3.6 3.4-3.2 3.6-7.1 5.4-11 8l-14.3 9a65.8 65.8 0 0 1-18 69.8 64.6 64.6 0 0 1-42.6 16.8 65.7 65.7 0 0 1-61.5-90 65.1 65.1 0 0 1 62.5-40.4Z" fill="#000"/><path d="M549.3 430.3a59.6 59.6 0 1 1 15.1 118.2 59.6 59.6 0 0 1-15.1-118.2Z" fill="#fff"/><path d="M414 454a55 55 0 1 1-79.4 30.7c-5.8-3.6-12.1-6.6-17.7-10.5-2-1.1-1.5-4.2.7-4.7 1.6-.5 3.1.6 4.6 1.3l14.4 8.5A55.2 55.2 0 0 1 414 454Z" fill="#000"/><path d="M378.3 453.3a49.3 49.3 0 1 1 17.2 97.1 49.3 49.3 0 0 1-17.2-97.1Z" fill="#fff"/><path d="M527.3 466.2a24 24 0 0 1 20.2 7.3 23.9 23.9 0 0 1-2.3 34.7 23.9 23.9 0 0 1-38.7-20.2 23.8 23.8 0 0 1 20.8-21.8ZM358.5 480.8a21.8 21.8 0 1 1 11.6 42 21.9 21.9 0 0 1-25.7-14 22.3 22.3 0 0 1 14.1-28Z" fill="#000"/></g><g transform="translate(-161 -83)"><path d="M397 373.1c6.9.2 14.2 2.9 18 9 1 1.4.6 3.6.7 5.3-6.3.2-12.5.4-18.6 1.9a112 112 0 0 0-41.7 20.1 90 90 0 0 0-22 23c-1.3 2.3-2.3 5.1-4.2 7-1.2.2-2.6.2-3.8.3 0-1.8-.3-3.4.2-5.2a88.7 88.7 0 0 1 38-50.8c10-5.8 21.8-11 33.5-10.6ZM578.5 411.7a71.4 71.4 0 0 1 30 10l-.2 4.7c-4 1.6-7.3-.1-11.3-.8-6.8-1.2-13.9-1.2-20.8-1a197.5 197.5 0 0 0-84 23.7c-1.4.6-3 1-4.4 1.5-2.6-5.4-3.6-11-.1-16.2 5-7.6 15.2-12.4 23.6-15.4 21.3-7.4 44.9-9 67.2-6.5Z" fill="#000"/></g><g transform="translate(-161 -83)"><path d="M453.2 567.4c4.2-.6 8.3-.4 12.1 1.3a25.7 25.7 0 0 1 14.5 18.3c3.2 12.1-1.3 26-11.7 33.2-3 2.5-6.7 3.5-10.4 2.2-3.6-1.8-5.3-5.3-6.2-9-1.5-5.2 1.2-10.4.1-16-1-4.3-4.7-7.5-6.5-11.5-1.3-2.7-2.5-6-2.1-9 .7-5 5.4-8.8 10.2-9.5Z" fill="#000"/></g><g transform="translate(-161 -83)"></g><g transform="translate(-161 -83)"><path d="M569 416.3c10.7-.3 21.4 0 32-.2 14-.7 28-.4 42-.6 3.9.2 9-.1 12.2 2.4 2.4 1.6 2.2 5.5 2.4 8-.1 4.4-.3 9.5-2.4 13.4-5 2-11.4 1.2-16.8 1.9.4 12.3 1.7 24.6 1.3 36.8-.7 14-3.7 28-10.3 40.4-8.1 13-20 24.3-33.6 31.5a77 77 0 0 1-33.3 7.7c-6.3.2-12.1.5-18.3-.8-9.4-2-18.8-4.4-27-10A81.6 81.6 0 0 1 492 516a193.1 193.1 0 0 1-13.3-43.9c-.5-2.3-2.4-3.5-4.3-4.4-6.7-3-15-.6-18.8 5.6-.8 2.4-1 5-1.2 7.6-.6 7.6-2.2 15.3-3.9 22.8-3.1 13.6-9 26.3-16.8 37.8a50.8 50.8 0 0 1-16.2 14.8 75.6 75.6 0 0 1-34.4 10.3c-7.2-.2-14.2-.4-21.1-2.5-5.5-1.3-10.5-4.8-15.2-8a57.7 57.7 0 0 1-15.3-16.7c-5.3-8.3-9.3-17.3-12.2-26.7a97.5 97.5 0 0 1-5.2-28.7c-4.6.7-9.4 2.2-14 2-4.4-.9-5.3-7.6-5.5-11.1.1-2.4-.1-6.8 2.7-7.7 21.6-9.8 44.4-17 67.5-22.4 17-3.7 34.8-8.3 52.3-6.7 11.2 1 22.8 4 31.7 11 3.2 2.5 5.5 7 9.4 7.7 7 1.8 14.5-1.3 20.9-4 3.6-10 10-17.3 19-22.8a89.3 89.3 0 0 1 20.8-8.3c16.7-4 33.1-4.6 50.2-5.5Z" fill="#000"/><path d="M307.1 478.2c1.2-1.2 3.4 0 2.4 1.6-1.2 1.2-3.4 0-2.4-1.6Z" fill="#000"/><ellipse cx="605" cy="457.5" rx="14" ry="10.5" fill="#fff"/><ellipse cx="411" cy="476.1" rx="11" ry="8.1" fill="#fff"/></g><g transform="translate(-161 -83)"><path d="M817 157.1c10.5 1.1 22 2.7 31.8 7.2 3 1.4 3.7 5.3.1 6.5-9.1 1.7-17.9 2.8-26.5 6.6a74.2 74.2 0 0 0-15.4 9.2c9.3-.2 18.4 1.2 27.5 2.7 15.4 3.3 31.5 8 45 16.2 2.5 1.3 3.8 4.6 5 7a181 181 0 0 1 16 54.5c1 17 .8 35.6-6 51.5a41.2 41.2 0 0 1-15.6 19.4c-1.4 1.2-3.2-.7-4-1.8a148.7 148.7 0 0 0-46-41 161.9 161.9 0 0 0-77.2-23.6 143 143 0 0 1 35.8 18 169 169 0 0 1 25.4 23.7c1.7 2 1.3 3.2.4 5.4-2 .1-3.2 0-4.8-1-6.9-4.4-14-8.4-21.6-11.4-18-7.7-38.6-12.6-58.2-8.3 8.1 16 14.6 32.7 19.8 50 8.3 27.8 14 57 14.7 86.1 0 7-.4 14.1-1.3 21-.5 2-1 6-3.9 5.5a54 54 0 0 0-33.5 4.8c.3 23-11 46.2-26 63.1-1.7 2-3.3 2.9-5.9 2-2.5-2.1.2-5.3.6-8 1-6.3 1.2-13 1.6-19.4-.1-8 .7-16 .2-24-.3-7 0-14-.5-21-.7-14.6-1.3-29.5-4-43.9-.2-1.2-1.5-1.6-2.4-2.2A91 91 0 0 1 671 399a156.9 156.9 0 0 1-28.7-36.1 181 181 0 0 1-10.6 52.9c-.7 1.5-1.2 4-2.9 5-4 .6-8.8-1.9-12.8-2.9-4.1-1.4-9-2-12.8-4-.6-2.8-.3-6-.2-8.9 1-19.4.4-38.8-3-58-1.7-9-3.1-18.3-5.6-27.2.6 16.4-.3 33-2.2 49.2-1.5 10-3.8 20-6.6 29.8-.7 2.7-1.5 5.5-2.9 8-.9 1.5-1.9 2-3.7 1.6a505 505 0 0 0-160-9.2c-2.2.4-3.1-1.6-4-3.2a103.7 103.7 0 0 1-7.6-58.3c-2.8 8-4.1 16.9-5.2 25.3-1.5 11.2.2 23 2.5 34 .3 1.5.2 3 0 4.5-18 3.4-38.1 8.8-53 20.2-1.2 1-2.9.5-3.8-.6a73.6 73.6 0 0 1-20-38.8c-4.8 8.4-6.5 19-9.5 28.2-.9 2.2-4.3 2.8-5.6.7a25 25 0 0 1-2.2-8.3 68.8 68.8 0 0 1 16-50.2c2.2-17.8 7.8-34 16.9-49.6a193.4 193.4 0 0 0-46.6 10.8 207.7 207.7 0 0 0-60.6 31.4c-10.2 7.2-18.7 15.9-26.6 25.4-1.5 1.8-3.2 2-5.1.7-.9-3.3-.8-7-.8-10.4a211.4 211.4 0 0 1 12.8-71.4 165 165 0 0 1 36-58c7-7 15-12.5 23.6-17.2a73 73 0 0 0-38.2-1.2c-1.8.4-3.1 1-4.4-.7-1.2-2.2.4-3.7 1.9-5a61.9 61.9 0 0 1 22.4-11.6c15-4.5 30.6-5 46-3.8a169 169 0 0 1 71.4 23.6 89 89 0 0 1 34.9 36.1A223.5 223.5 0 0 1 511 212.4c23.5-3.2 47.5-3.4 71 0a234.7 234.7 0 0 1 91.1 31.6 123.9 123.9 0 0 1 39.5-51.4c13.9-11 29.5-21 46.3-26.7a145 145 0 0 1 58-8.8Z" fill="#000"/><g fill="#796a45"><path d="M820 163.2c6.5.5 12.7 2 19 3.5a94.7 94.7 0 0 0-18.8 5.6 77 77 0 0 0-21.3 14.5c-4.4 1.3-9.3 1-13.8 2.2-2.6 1.6-2.3 4.8.9 5.4 11-1 21.3-3.2 32-1.5 9.7.8 19.4 2.5 28.8 5.2a127 127 0 0 1 25 9.1c2.4 1.4 4.8 2.3 6 5 2.6 4.7 4.6 9.8 6.6 14.8a200 200 0 0 0-67.4-19.2c-24.8-2.2-50.8-1.2-74.2 8-3.4 1.4-7.3 2.7-10 5.2-1.3 2.8 1.3 5.3 4 3.8 15.7-8 32.8-11 50.2-12.2 33.6-1.3 68.4 5.5 98.2 21.2 1.1.7 2.2 1 2.5 2.3 3.5 11.2 6.7 23.2 7.3 34.9 1 9 0 17.8-.8 26.8-1.8 12.6-5.5 25-15.3 33.9a157.3 157.3 0 0 0-42.7-38.9 177 177 0 0 0-67.7-25.6 112.2 112.2 0 0 0-32.5-.2c-2 .5-4.4 2.6-2.8 4.8 1 1.9 2.8 2 4.8 2.3 5.4.8 10.7 2.3 15.8 4.1a124.5 124.5 0 0 1 41.9 25.5 214 214 0 0 0-23.5-9 92.5 92.5 0 0 0-46.4-2.1c-2.4-4.6-6.1-7.9-9.1-12.1-2.3-3.5-5.5-5.8-8.3-8.9a190.9 190.9 0 0 0-30.1-24.5 94.8 94.8 0 0 1 20-32.9c11.5-13.2 26-24 41-33a138.8 138.8 0 0 1 80.7-18ZM280 197.7c10.4-1.2 20.2-.1 30.5 1a153.9 153.9 0 0 1 75.2 31.6 68.2 68.2 0 0 1 20.2 26.2c-24.7 4.5-45 21-59 41.3a189 189 0 0 0-56.8 12.3 215.6 215.6 0 0 0-60.9 33.1 156.3 156.3 0 0 0-20 19.2c0-4.3.1-8.6.6-12.9.9-7.8 1-15 3-22.9 2.3-2.5 5.2-4.7 7.9-6.9 22.5-17.6 50-28.9 78.3-32.2 8.4-.8 16.7-.7 25-.3 3.1-.1 2.8-2.4 2.7-4.7-3.5-1.3-7-1.5-10.7-1.6-17.4-.2-35 2.9-51.5 8.6a157 157 0 0 0-50.1 28c6-26.9 17.3-52.8 35.2-74 9-11 20.2-20 33.2-25.7 2.3-1 4.5-1.8 3.7-5-1.8-1.8-5-2-7.4-2.9a71.7 71.7 0 0 0-31-3.8c9.6-5.2 21.1-7.6 31.9-8.4Z"/><path d="M628.8 229.4c33 11.5 64.2 31 86.4 58.4 5 5.9 8.3 12.5 11.6 19.3 9 18.6 15.6 38.5 20.6 58.4 4.4 17.3 7.6 34.8 9.1 52.5 1 12 1.7 25-.6 36.8a62.3 62.3 0 0 0-31.6 4.2c-.6-2.7-1-5.5-2-8.1-1.2-2.6-5.2-2-5 1.1.4 5 1.8 9.9 1.6 15a91.3 91.3 0 0 1-19.5 51.2c.9-5.3.9-10.8 1.1-16.1.3-17.4.3-34.8-.6-52-1.2-13.3-1.2-27.4-4.6-40.3-2.4-2.6-6.4-3.7-9.2-6a144.7 144.7 0 0 1-38.3-42.7c-2-3.3-4.1-6.7-5.4-10.4-.6-3.5-.6-7.1-1.1-10.7-3-22-9.8-43.4-20.2-63-3.5-6.4-8.2-11.6-13-17-1.2-1.6-2.5-1.3-4.2-1.4l-1.3 2.5c1.4 3.9 4.4 6.1 7 9.4 5.2 6 8.4 12.9 11.7 20 6 13.4 10.4 27.6 13 42 5.3 27.9 1 55.8-7.8 82.5-6.2-1.6-12.2-3.6-18.4-5.4a251.8 251.8 0 0 0-5.8-81.4c-2.2-11.2-5.8-22-9.8-32.7-1-2.4-2.7-1.8-4.8-2-.5 1.5-1 2.9-.8 4.5.6 5 .9 10.1 1.4 15.2 1.6 17.2.2 33.8-1.2 51-1.5 13-4.3 25.8-8.1 38.3-35.2-7.2-71-11.4-106.9-11.8a141.3 141.3 0 0 1-3-42.7 162.8 162.8 0 0 1 22.5-74.4 109 109 0 0 1 14.2-20.9c.7-1 2.1-2.3 1.9-3.6 0-2.5-3.5-3.2-5-1.4a111 111 0 0 0-16 23 163 163 0 0 0-23.4 79.3 144 144 0 0 0 3.5 40.7c-6.2 0-12.5.1-18.7.3-9.2.9-18.4 1-27.6 2.5a99.5 99.5 0 0 1-7.8-53.5c1.4-12.6 4.2-25.1 8.2-37.2.6-2 2.3-4.8 1.2-6.8-1.4-2.1-4.4-1.4-5.3.8-3.4 6.8-6.4 13.8-9 21-5.8 16.8-11.3 33.2-11.5 51.2-.2 9.4 1 18.5 3 27.7a130.1 130.1 0 0 0-49 18.9 70.6 70.6 0 0 1-17-36.1 106 106 0 0 1 5-52 110 110 0 0 1 35.8-50.4 74 74 0 0 1 35.9-15.3c2.3-.3 5.6.2 7.4-1.6.9-2.7-.3-3.5-2.4-4.9a210.4 210.4 0 0 1 47.5-24.9 249 249 0 0 1 166.3-1ZM326.4 362c-.1 3.5.4 7 0 10.5-1.7 4.4-4.1 8.6-6 13-2 4.3-2.9 8.9-4.5 13.3a65 65 0 0 1 10.5-36.8Z"/></g></g><g transform="translate(-161 -83)"></g></g></svg>