<svg xmlns="http://www.w3.org/2000/svg" viewBox="0 0 400 400" fill="none" shape-rendering="auto"><metadata xmlns:rdf="http://www.w3.org/1999/02/22-rdf-syntax-ns#" xmlns:xsi="http://www.w3.org/2001/XMLSchema-instance" xmlns:dc="http://purl.org/dc/elements/1.1/" xmlns:dcterms="http://purl.org/dc/terms/"><rdf:RDF><rdf:Description><dc:title>Adventurer Neutral</dc:title><dc:creator>Lisa Wischofsky</dc:creator><dc:source xsi:type="dcterms:URI">https://www.figma.com/community/file/1184595184137881796</dc:source><dcterms:license xsi:type="dcterms:URI">https://creativecommons.org/licenses/by/4.0/</dcterms:license><dc:rights>Remix of „Adventurer Neutral” (https://www.figma.com/community/file/1184595184137881796) by „Lisa Wischofsky”, licensed under „CC BY 4.0” (https://creativecommons.org/licenses/by/4.0/)</dc:rights></rdf:Description></rdf:RDF></metadata><mask id="viewboxMask"><rect width="400" height="400" rx="0" ry="0" x="0" y="0" fill="#fff" /></mask><g mask="url(#viewboxMask)"><rect fill="#f2d3b1" width="400" height="400" x="0" y="0" /><g transform="translate(-279 -322)"><path d="M558.2 453.21c11.47-1.62 23.68.14 34 5.5 7.61 3.93 14.3 10.28 18.11 18 3.35 6.67 3.82 14.64 2.11 21.82-2.1 8.03-7.22 15.16-13.75 20.2-14.96 11.75-36.54 14.35-54.2 7.75-8.43-3.17-16.54-8.89-21.4-16.55-2.8-4.73-5.22-10.36-5.36-15.93-.7-9.54 3.61-19.3 10.27-26.02 8.05-8.38 18.87-12.97 30.22-14.77Z" fill="#000"/><path d="M559.17 459.11c13.97-2.02 29.72 1.64 39.88 11.85 6.6 6.52 10.35 16.95 7.62 26.05-2.06 8.19-7.68 14.5-14.53 19.15-12.44 8.2-28.98 10.02-43.11 5.63-8.63-2.7-17.05-8.19-21.69-16.1-3.02-5-4.14-10.91-3.6-16.7.77-6.83 4.54-13.12 9.39-17.85 7.05-6.72 16.44-10.78 26.04-12.03Z" fill="#fff"/><path d="M369.48 468.71c17.62-2.69 37.91 3.42 47.71 19.13a30.7 30.7 0 0 1 1.93 29.15c-2.9 6.32-7.9 11.64-13.7 15.43-7.34 4.75-15.75 7.1-24.42 7.8-14.63.56-29.8-4.3-39.4-15.8-5.22-6.27-8.18-14.2-7.54-22.4.56-8.28 4.61-15.75 10.51-21.45 6.92-6.46 15.65-10.23 24.91-11.86Z" fill="#000"/><path d="M376.55 474.11c9.64-.35 19.56 2.27 27.37 8.02 5.14 3.82 9.44 9.18 11.19 15.41 1.61 6.2 1.04 12.92-2.15 18.54-4.72 8.62-13.66 14.22-22.97 16.7-13.7 3.72-30.16.72-40.8-8.98-6.28-5.66-10-13.74-9.23-22.26a27.3 27.3 0 0 1 6.85-14.72c7.34-8.2 18.86-12.64 29.74-12.7Z" fill="#fff"/><path d="M551.46 477.61c3.7-.8 7.51-.7 10.96.96 6.42 3.03 10.48 10.43 8.9 17.48-1.3 7.25-7.9 12.9-15.3 12.85-8.43.47-15.97-6.52-16.35-14.89a15.94 15.94 0 0 1 11.8-16.4Z" fill="#000"/><path d="M553.62 483.21c4-.67 7.83.6 10.2 3.96 3.05 4.06 2.27 9.86-1.37 13.27-4.4 3.95-11.88 3.34-15.16-1.77-4.01-5.83-.63-14.19 6.32-15.46Z" fill="#fff"/><path d="M618.7 484.19c1.7.32 3.64-.24 4.63 1.46 1.61 2.47 2.37 5.58 2.85 8.46 1.44 10.52-2.22 21.8-9.83 29.25-3.27 3.02-7.82 5.97-12.38 6.11-2.73.04-4.27-2.62-2.33-4.8 3.27-1.61 6.54-2.11 9.44-4.56 6.3-5.26 9.64-14.02 9.57-22.11 0-4.02-1.58-7.21-2.66-10.96l.71-2.84ZM380.44 488.46c4.44-.82 9.2.5 12.68 3.35 5.75 4.58 7.69 13.08 4.69 19.76-2.56 5.93-8.24 10.22-14.82 10.23-8.45.57-15.94-6.42-16.44-14.79a17.14 17.14 0 0 1 13.89-18.54Z" fill="#000"/><path d="M379.53 494.79c5.08-1.91 10.94.6 12.92 5.67 2.83 6.48-1.52 14.7-8.68 15.43-4.25.47-7.6-1.26-9.9-4.82-3.45-5.89-.8-13.89 5.66-16.28Z" fill="#fff"/><path d="M330.44 503.6c.44 4.06-1.4 7.43-1.67 11.39a19.33 19.33 0 0 0 7.3 15.89c2.43 1.9 5.11 2.82 7.77 4.29 1.95.85 1.84 2.03 1.58 3.92-1.5 1.78-3.3 1.46-5.3.8-7.29-2.71-13.56-8.6-15.96-16.08-2.04-6.12-1.77-13.6 1.36-19.29 1.26-1.87 3.04-.88 4.92-.92Z" fill="#000"/></g><g transform="translate(-279 -322)"><path d="M452.03 395.85c.66 4.64-1.5 9.35-4.2 13-3.6 4.46-7.82 8.36-12.86 11.13-7.66 4.35-15.96 7.7-24.2 10.81-23.78 8.79-48.55 15.1-73.5 19.48-3.36.54-6.98 1.5-10.37 1.11-1.92-.92-2-2.82-1.1-4.52 2.33-1.8 5.48-2.72 8.18-3.89 35.94-14.72 71.88-29.45 107.8-44.2 3.36-1.25 6.6-3.38 10.25-2.92ZM478.97 396c49.32 7.61 98.68 15.15 148.01 22.75 2.58.42 5.33.58 7.8 1.41 2.45 1.14 1.71 5.04-.95 5.26-9.6.95-19.18 1.82-28.83 1.95-15.39.1-30.64.32-45.98-1.18-20.9-1.64-42.24-4.59-62.25-11.06-6.97-2.4-14.88-5.46-20.27-10.64-1.8-1.9-4.09-4.28-3.17-7.13 1.22-2.13 3.6-1.6 5.64-1.36Z" fill="#000"/></g><g transform="translate(-279 -322)"><path d="M534.29 562.56c7.92 1.16 15.41 4.36 21.23 9.92 8.1 7.57 12.12 18.53 11.86 29.52.34 9.78-2.38 19.12-6.68 27.8a82.54 82.54 0 0 1-31.98 33.94c-11.83 6.96-25.1 10.44-38.72 11.36-30.63 1.61-61.2-11.84-82.09-34.04-6.37-8.12-11.85-18.46-11.45-29.06a24.8 24.8 0 0 1 10.45-20.16c6.92-4.97 14.77-6.31 23.1-6.8 14.2.16 27.8 4.33 40.17 11.13 8.52-12.59 20-22.9 34.03-28.96a56.4 56.4 0 0 1 30.09-4.64Z" fill="#000"/><path d="M533.47 568.33c9.24 1.28 17.97 6.24 22.9 14.3 5.96 9.6 6.65 21.04 3.8 31.79-4.04-.55-7.89-.69-11.96-.2-10.83.62-21.72 3.37-31.95 6.96 1.4-7.49 2.53-16.65-.57-23.85-1.7-3.84-5.4-6.2-9.58-4.33-6.58 3.12-10.3 11.89-13.02 18.22-4.75-1.63-11.32-3.78-16.06-1.23-3.89 2.19-3.78 6.53-2.42 10.26 2.56 6.21 7.7 11.08 12.64 15.44-12.05 7.9-22.81 17.29-31.17 29.09a103.78 103.78 0 0 1-40-23.82c-6.74-6.44-12-15.15-13.62-24.38-1.13-6.35.66-13.23 5.31-17.81 4.47-4.6 11-6.66 17.2-7.5 11.8-1.52 24.47 1.81 35.25 6.5 3.75 1.52 7.1 3.83 10.78 5.43 2.67.3 3.7-3.41 5.1-5.15 9.05-13.35 22.94-24.15 38.64-28.36 5.96-1.82 12.57-1.87 18.73-1.36Z" fill="#8F2E45"/><path d="M508.97 597.86c2.64 2.37 2.74 6.8 2.88 10.12-.08 10.9-3.14 21.9-7.97 31.65-4-2.1-7.93-4.17-11.35-7.18-4.32-3.77-9.1-7.97-11.95-13-.89-1.46-.92-3-1.16-4.64 5.16-.73 9.19 1.01 13.81 2.87 2.79 1 3.86-1.4 4.96-3.44 2.44-5.54 5.13-13.33 10.78-16.38Z" fill="#D32020"/><path d="M558.62 619.94a70.8 70.8 0 0 1-11 19.63c-3.78 4.78-8.56 8.9-13.02 13.05-9.94 8.14-22.52 13.35-35.12 15.57-12.5 1.97-25.18 1.2-37.5-1.56 8.1-11.13 18.64-19.92 30.29-27.15 3.76 2.33 7.58 5.16 11.76 6.65 1.4.62 2.77-.42 3.56-1.5 3.17-4.9 4.87-10.03 6.78-15.43.38-1.43 1.62-1.55 2.8-2.1 12.98-4.74 27.57-8.13 41.45-7.16Z" fill="#EA869E"/></g><g transform="translate(-279 -322)"></g></g></svg>