<svg xmlns="http://www.w3.org/2000/svg" viewBox="0 0 400 400" fill="none" shape-rendering="auto"><metadata xmlns:rdf="http://www.w3.org/1999/02/22-rdf-syntax-ns#" xmlns:xsi="http://www.w3.org/2001/XMLSchema-instance" xmlns:dc="http://purl.org/dc/elements/1.1/" xmlns:dcterms="http://purl.org/dc/terms/"><rdf:RDF><rdf:Description><dc:title>Adventurer Neutral</dc:title><dc:creator>Lisa Wischofsky</dc:creator><dc:source xsi:type="dcterms:URI">https://www.figma.com/community/file/1184595184137881796</dc:source><dcterms:license xsi:type="dcterms:URI">https://creativecommons.org/licenses/by/4.0/</dcterms:license><dc:rights>Remix of „Adventurer Neutral” (https://www.figma.com/community/file/1184595184137881796) by „Lisa Wischofsky”, licensed under „CC BY 4.0” (https://creativecommons.org/licenses/by/4.0/)</dc:rights></rdf:Description></rdf:RDF></metadata><mask id="viewboxMask"><rect width="400" height="400" rx="0" ry="0" x="0" y="0" fill="#fff" /></mask><g mask="url(#viewboxMask)"><rect fill="#9e5622" width="400" height="400" x="0" y="0" /><g transform="translate(-279 -322)"><path d="M550.27 424.38a65.85 65.85 0 0 1 34.46 5.92 65.02 65.02 0 0 1 27.52 24.52 64.86 64.86 0 0 1 8.78 46.18c-2.62 15.25-11.05 29.23-23.03 38.97-16.48 13.6-39.38 18.04-59.8 11.9a65.42 65.42 0 0 1-38.32-30.76c-7.42-12.96-9.7-28.23-7.33-42.9a64.9 64.9 0 0 1 18.4-35.26 65.17 65.17 0 0 1 39.32-18.57Z" fill="#000"/><path d="M549.23 430.27c9.32-.98 18.71-.35 27.55 2.92a59.66 59.66 0 0 1 33.08 28.93c5.89 11.3 7.76 24.3 5.8 36.86a60.18 60.18 0 0 1-17.48 33.21c-9.48 9.35-22.52 15.1-35.7 16.47a59.94 59.94 0 0 1-43.07-13.03c-9.46-7.5-15.92-17.77-19.8-29.11-5.25-18.02-1.63-38.17 9.75-53.13a59.47 59.47 0 0 1 39.88-23.12Z" fill="#fff"/><path d="M521.23 467.28c7.3-1.89 15.52.27 20.87 5.62a22 22 0 0 1 5.6 22.95c-3.5 11.19-16.53 17.96-27.64 14.08-11.45-3.35-18.17-16.1-14.6-27.48a22.37 22.37 0 0 1 15.77-15.17ZM332.97 478.46c14.43.75 28.78 1.53 43.05 3.91 21.13 3.42 42.86 8.97 62.12 18.47 2.85 1.6 2.45 3.3 1.6 6.06-2.42.05-4.41-.24-6.71-1-11.15-3.39-22.56-5.26-34.03-7.17-10.45-1.44-20.56-3.19-31-3.72-10.97-1.1-21.89-.72-32.98-.66-1.97-.1-5.02.62-6.6-.75-.76-2.14.78-4.69 1.32-6.78-.94-1.57-3.08-3.45-2.4-5.43.87-2.4 3.35-2.93 5.63-2.93Z" fill="#000"/></g><g transform="translate(-279 -322)"><path d="M614 406.99c-24.74-23-58.3-35.43-92-35.08-8.9.26-17.67 1.52-26.42 3.12-1.5 3.24-2.51 6.6-3.52 9.98-.37 1.22-.73 2.44-1.12 3.66l-.13-1.4a170 170 0 0 0-1.31-11.32l-3.23-1.56c-.21.37-.5.74-.8 1.12-.6.76-1.23 1.55-1.26 2.44-.1 3.74.3 7.48.71 11.22.3 2.78.6 5.57.7 8.37.08.67.12 1.4.16 2.16.13 2.41.28 5.08 1.65 6.85 2.83.76 6.04-.34 9.02-1.36 1.06-.36 2.08-.7 3.05-.96 18.93-5.52 39.16-6.87 58.7-4.41 20 2.31 40.08 8.25 57.45 18.55 1.95 1.1 4 1.81 6.12 2.5l1.77-3.35c-2.7-3.96-6.05-7.28-9.54-10.53ZM422.26 399.6c.13-4.24.27-8.47.03-12.67-.25-2.54-1.86-2.58-3.72-2.62-.33 0-.66 0-1-.03-.92 3.61-1.06 7.52-1.21 11.37-.06 1.66-.13 3.3-.25 4.91a198.7 198.7 0 0 1-4.5-11.36c-.14-.25-.25-.54-.37-.83-.43-1.08-.9-2.26-2.24-2.23-2.5-.06-5.02.4-7.53.84-1.15.2-2.3.42-3.44.57-18.15 3.2-37.02 9.52-52.08 20.37-6.61 4.82-13.05 11.1-16.67 18.52-1.44 3.11-2.83 6.47-1.59 9.9l.41.12c1.08.33 2.6.8 3.42.06.93-.7 1.82-1.43 2.72-2.15 2.06-1.68 4.1-3.34 6.5-4.6 7.97-4.3 16.79-7.19 25.5-9.59 13.84-3.56 28.46-6.2 42.8-5.7 1.83.01 3.63.27 5.43.53 1.88.26 3.77.53 5.67.53 1.8-1.27 1.85-3.62 1.89-5.77 0-.62.02-1.2.07-1.76-.02-2.8.07-5.6.16-8.42Z" fill="#000"/></g><g transform="translate(-279 -322)"><path d="M514.98 571.8c9.94-.79 20.34-.67 29.5 3.7 4.76 2.28 8.77 6.1 9.74 11.45.87 5.24-1.16 9.93-4.1 14.14-5.1 7.1-13.02 12.35-20.61 16.48-16.5 8.76-34.08 12.05-52.5 13.76-20.25 3.08-41.64-1.62-59.12-12.17-6.2-3.9-12.82-9.26-16.03-16-2.56-5.26-2.25-12 1.93-16.37 4.77-5.2 12.43-7.15 19.2-7.88 15.6-1.27 30.57 2.31 44.79 8.5a117.73 117.73 0 0 1 47.2-15.61Z" fill="#000"/><path d="M540.41 580c-3.76 3.21-7.89 5.79-12.13 8.3-2.67 1.53-3.75 4.13-5.44 6.6a30.23 30.23 0 0 1-5.75 6.71c-3.02-1.1-5.96-2.85-9.11-3.5-3.03.45-5.9 1.87-8.86 2.66-10.02 2.86-20.67 5-31.12 4.92-2.95-.04-5.77.19-8.66.8.26 2.48-.5 4.68 2.82 5.02 14.67.86 29.74-2 43.63-6.66 4.74-2.07 7.69 3.08 12.84 1.72 4.35-1.27 7.37-6.6 9.92-10.06 1.78-2.8 4.43-4.12 7.14-5.82 3.66-2.24 6.97-4.85 10.35-7.47 1.44 2.56 3.17 4.68 2.42 7.82-1.4 6.39-6.6 11-11.48 14.92-12.52 9.5-28.96 14.76-44.24 17.66-14.5 1.98-28 4.19-42.61 1.47-12.77-2.46-26.17-7.5-36.14-16.1-3.77-3.4-8.37-8.52-7.81-14 .33-3.74 3.92-6.31 7.09-7.71 7.95-3.35 16.73-3.08 25.15-2.22 8.7 1.23 17.39 3.52 25.38 7.26 1.55.63 3.37 1.64 5.08 1.52 3.1-1.25 5.75-3.55 8.75-5.06a101.93 101.93 0 0 1 28.23-9.73c11.45-2.02 23.37-2.95 34.55.95Z" fill="#fff"/></g><g transform="translate(-279 -322)"></g></g></svg>