<svg xmlns="http://www.w3.org/2000/svg" viewBox="0 0 400 400" fill="none" shape-rendering="auto"><metadata xmlns:rdf="http://www.w3.org/1999/02/22-rdf-syntax-ns#" xmlns:xsi="http://www.w3.org/2001/XMLSchema-instance" xmlns:dc="http://purl.org/dc/elements/1.1/" xmlns:dcterms="http://purl.org/dc/terms/"><rdf:RDF><rdf:Description><dc:title>Adventurer Neutral</dc:title><dc:creator>Lisa Wischofsky</dc:creator><dc:source xsi:type="dcterms:URI">https://www.figma.com/community/file/1184595184137881796</dc:source><dcterms:license xsi:type="dcterms:URI">https://creativecommons.org/licenses/by/4.0/</dcterms:license><dc:rights>Remix of „Adventurer Neutral” (https://www.figma.com/community/file/1184595184137881796) by „Lisa Wischofsky”, licensed under „CC BY 4.0” (https://creativecommons.org/licenses/by/4.0/)</dc:rights></rdf:Description></rdf:RDF></metadata><mask id="viewboxMask"><rect width="400" height="400" rx="0" ry="0" x="0" y="0" fill="#fff" /></mask><g mask="url(#viewboxMask)"><rect fill="#9e5622" width="400" height="400" x="0" y="0" /><g transform="translate(-279 -322)"><path d="M617.23 468.82c1.16 1.34 2.37 2.36 2.84 4.14a65.5 65.5 0 0 1-7.98 51.11 65.74 65.74 0 0 1-34.83 27.28 65.88 65.88 0 0 1-36.24 1.27 65.18 65.18 0 0 1-40.77-30.86c-7.18-12.23-9.85-26.73-8.06-40.75.53-3.4 1.75-7.26 5.57-8.09 8.61-1.53 17.56-1.34 26.27-2.27 24.31-1.49 48.65-2.37 73-2.08 6.76-.37 13.46.4 20.2.25Z" fill="#000"/><path d="m607.09 474.28 7.45.37c3.8 14.15 1.78 29.85-5.17 42.73a59.07 59.07 0 0 1-32.1 27.84c-14.68 5.57-31.38 4.73-45.56-1.92a59.34 59.34 0 0 1-29.82-31.09c-4.2-10.22-5.99-22.1-3.63-32.98a17.6 17.6 0 0 1 5.7-1.4c16.9-1.37 33.84-2.38 50.78-3.11-.4 5.34-.18 10.53 2.1 15.47a26.66 26.66 0 0 0 18.61 15.04c4.89.87 9.94.6 14.61-1.13 8.19-2.82 14.36-9.95 16.48-18.27.92-3.9.66-7.59.54-11.55Z" fill="#fff"/><path d="M432.03 480.67c2.01-.23 3.8.3 5.74.68 4.2 9.05 4.82 19.93 3.38 29.69a55.08 55.08 0 0 1-23.63 36.48 54.76 54.76 0 0 1-37.5 8.79 54.68 54.68 0 0 1-38.26-23.14c-6.82-9.7-10.02-21.43-10-33.24 6.52-3.27 13.17-3.72 20.48-5.47 20.5-4.17 41.07-8.1 61.75-11.22 6-1 11.97-2.04 18.04-2.57Z" fill="#000"/><path d="M433.71 486.06c1.44 5.27 2.74 10.43 2.6 15.94-.2 9.5-3 19.08-8.31 27-9.89 15.06-28.07 23.77-46 21.87a49.72 49.72 0 0 1-32.18-16.71c-7.5-8.47-11.57-19.33-12.24-30.58 14.45-3.54 29.14-6.22 43.76-9 1.32 6.48 4.55 12.27 10.11 16.02 9.04 6.32 21.92 5.38 29.9-2.26 6.12-5.72 8.04-13.57 7.2-21.73l5.16-.54Z" fill="#fff"/></g><g transform="translate(-279 -322)"><path d="M523.24 384.36c6.17-.42 13.1-.61 18.45 2.95 3.68 2.44 5.4 6.35 4.48 10.74-1.55 6.16-6.62 10.92-11.61 14.5a67.57 67.57 0 0 1-30.57 11.53c-5.61.53-12.5.43-17.47-2.55-3.63-2.13-5.9-6.12-5.2-10.36 1.02-5.75 5.5-10.5 9.94-13.96 9.19-7.03 20.55-11.34 31.98-12.85ZM392.22 401.23c9.1-.36 18.3.5 26.3 5.24 3.86 2.26 7.35 5.89 7.9 10.49.34 4.21-1.96 7.8-5.19 10.27-4.52 3.55-9.87 5-15.43 6-9.95 1-20.55.31-29.48-4.6-3.87-2.28-7.88-5.84-8.47-10.56-.73-4.27 2.02-8.47 5.39-10.84 5.4-3.87 12.43-5.69 18.98-6Z" fill="#000"/></g><g transform="translate(-279 -322)"><path d="M524.16 555.86c.61 6.97-.8 13.29-1.53 20.14a244.24 244.24 0 0 1-19.15 70.23c-3.65 7.33-6.72 15.74-13.94 20.34-3.86 2.79-9.11 1.94-13.2.16-4.48-2.23-8.94-4.98-12.4-8.63a171.31 171.31 0 0 1-29.95-42.13c-6.76-12.54-11.65-25.76-17.12-38.87-.92-2.1-1.13-4.11 1.07-5.43 4.38-.1 8.65 1.41 13.06 1.45 9.89.33 20 .52 29.81-.88 17.69-2.04 35.09-7.15 51.54-13.9 4.22-1.53 7.13-4.31 11.8-2.48Z" fill="#000"/><path d="M518.92 562c-2.1 16.35-4.16 32.05-8.89 47.96-9.07-.71-18.45 2.59-26.46 6.61-10.54 5.48-21.2 13.48-27.26 23.89-7.57-9.81-13.74-20.42-19.35-31.44-5.4-10.14-9.36-20.75-13.97-31.24 9.45.8 18.5 2.05 28 1 23.2-.72 46.68-7.68 67.93-16.78Z" fill="#8F2E45"/><path d="M508.19 616.1c-3.83 13.3-8.82 26.4-15.55 38.52-1.62 2.89-3.68 5.84-6.7 7.39-4.1 1.71-9.13-1.19-12.46-3.5-5.34-3.38-8.58-8.29-12.86-12.75 1.94-5.34 6.2-9.98 10.4-13.7 7.82-6.68 17.1-12.04 27-14.9 3.33-1.04 6.71-1.16 10.17-1.06Z" fill="#EA869E"/></g><g transform="translate(-279 -322)"></g></g></svg>