<svg xmlns="http://www.w3.org/2000/svg" viewBox="0 0 762 762" fill="none" shape-rendering="auto"><metadata xmlns:rdf="http://www.w3.org/1999/02/22-rdf-syntax-ns#" xmlns:xsi="http://www.w3.org/2001/XMLSchema-instance" xmlns:dc="http://purl.org/dc/elements/1.1/" xmlns:dcterms="http://purl.org/dc/terms/"><rdf:RDF><rdf:Description><dc:title>Adventurer</dc:title><dc:creator>Lisa Wischofsky</dc:creator><dc:source xsi:type="dcterms:URI">https://www.figma.com/community/file/1184595184137881796</dc:source><dcterms:license xsi:type="dcterms:URI">https://creativecommons.org/licenses/by/4.0/</dcterms:license><dc:rights>Remix of „Adventurer” (https://www.figma.com/community/file/1184595184137881796) by „Lisa Wischofsky”, licensed under „CC BY 4.0” (https://creativecommons.org/licenses/by/4.0/)</dc:rights></rdf:Description></rdf:RDF></metadata><mask id="viewboxMask"><rect width="762" height="762" rx="0" ry="0" x="0" y="0" fill="#fff" /></mask><g mask="url(#viewboxMask)"><path d="M396 164.8a224.8 224.8 0 0 1 104.8 42.4c6.2 4.9 12.5 9.4 18 15a225.4 225.4 0 0 1 71.8 149 58.5 58.5 0 0 1 50.9 42.2 71 71 0 0 1-27.6 76.5c-11 7.7-24.5 12-38 11.7-5 0-10-1.6-15-1.8-1.9 2.2-3.3 4.9-4.8 7.3A223.3 223.3 0 0 1 389 609.8c-11 .7-21.9 2-33 .7a223.7 223.7 0 0 1-178.8-342.3A223.4 223.4 0 0 1 352 163.5c14.6-1.4 29.4-.3 44 1.3Z" fill="#000"/><path fill-rule="evenodd" clip-rule="evenodd" d="M498.8 213.2A216 216 0 0 0 363 169c-13-.2-26.2 1.6-39 4a218 218 0 0 0-113.6 365.5 218.5 218.5 0 0 0 260.4 40.2c35-18.8 64.2-47.3 84.4-81.5l-3-1.6c-2.8-1.4-5.7-3-8-5-2.2-2-.3-5.8 2.7-4.7 1.5.7 3 1.6 4.4 2.4a55 55 0 0 0 59.6-3.6 64.5 64.5 0 0 0 25-69.8 53.1 53.1 0 0 0-24-31 52.6 52.6 0 0 0-47-2.8c-1.6.8-3.4 1.5-5 1.3-2.5-.2-2.8-4.2-.6-5.2 8-4 16.5-5.6 25.4-6.4a217 217 0 0 0-72-146.4c-4.4-4-8.7-8.1-13.9-11.3Zm107.6 196.2c2-1.2 1.3-5.1-1.4-5-2 0-4.2.8-6.2 1.6l-1.4.4a95.1 95.1 0 0 0-25.5 12.4c-2.2 2-2.2 4.4.1 6.2a92 92 0 0 0 5.2 2.8 36 36 0 0 1 13 9.2c-.2 1.9-2 3.4-3.4 4.5l-.2.2c-3.9 3-8.8 5-13.6 7-2.5 1-4.9 2-7.1 3.1-1.7.8-2.6 2.2-1.6 3.9 1 2 3.2 1.1 5 .5l.6-.2 5.4-2.3c5.4-2.3 11-4.5 15.4-8 2.7-2.1 5.1-5.1 5.4-8.7-.5-3.4-2.7-5.7-5.3-7.8a83 83 0 0 0-11.6-7.2l-1.1-.6c5.4-3 10.8-5.6 16.6-7.7l5-1.7a52 52 0 0 0 6.7-2.6Z" fill="#ecad80"/><g transform="translate(-161 -83)"><path d="M551.3 424.3a65.4 65.4 0 0 1 59.6 101.6 65.2 65.2 0 1 1-59.6-101.6Z" fill="#000"/><path d="M549.3 430.3a59.6 59.6 0 1 1 15.2 118.2 59.6 59.6 0 0 1-15.2-118.2Z" fill="#fff"/><path d="M381.2 447a55.4 55.4 0 0 1 58.7 40 55.5 55.5 0 0 1-26.7 63.1 54.7 54.7 0 0 1-81.3-46.1 55.1 55.1 0 0 1 49.4-57Z" fill="#000"/><path d="M378.3 453.3a49 49 0 0 1 57.2 56.6 49.1 49.1 0 0 1-93.1 12.9 49.3 49.3 0 0 1 35.9-69.5Z" fill="#fff"/><path d="M526.5 467.5c12-2.9 24.9 4.2 29.3 15.6a26 26 0 0 1 0 18.7 25.6 25.6 0 1 1-29.3-34.3ZM398.3 478.4a23.2 23.2 0 0 1 27 18c.7 5.7.6 11.4-2.6 16.2a23.4 23.4 0 0 1-23.6 11.2 23.1 23.1 0 0 1-.8-45.4Z" fill="#000"/></g><g transform="translate(-161 -83)"><path d="M517 379.7c1-1 2.2-2.3 1.8-3.6-.3-2.5-3.5-3.1-5.2-1.5l-8.3 7.4-6.5 5.8-3 2.7a44.3 44.3 0 0 0-7.4 7.5l.9 1c.7 1 1.4 1.8 2.7 1.8 1.5 0 2.7-1.1 3.8-2l.4-.4c4.3-4 8.7-8 13.1-11.8l7.6-6.8.2-.1ZM539.7 378.7c.5-1.8-.2-3-1.6-4-2-.4-3.9.7-5.6 1.7l-1.3.8-13.4 7.7-14.4 8.4c-1.6.9-1.7 2-1.7 3.4v1.5l1.2.3c1.2.4 2.3.8 3.6 0l15.1-8.6a959.6 959.6 0 0 1 14.4-8.3 10 10 0 0 0 3.7-3ZM566.4 378.4c2-.7 4.2.2 4.4 2.6 0 2.3-1.7 2.9-3.5 3.5l-.8.3a5914.4 5914.4 0 0 0-37.6 11.6c-1.3.4-2.6.8-4 0-1.8-1.2-1.7-4.2.4-5.1 1.8-.9 3.7-1.4 5.7-2l2.6-.8 11.5-3.5 21.3-6.6ZM589.4 390.4c1-1.7.6-3-.5-4.5-2.2-.7-4.9 0-7.4.5l-2.5.5-8.5 1.7-12.4 2.5c-2 .5-3.7 1.7-3.1 3.9.6 2 2 2.4 4 2.1l12-2.3 11.5-2.3c.5 0 .9-.2 1.3-.3 2-.3 4-.7 5.6-1.8ZM405.8 394.7a231.8 231.8 0 0 0 8 5v.1c1.8 1 3.5 2.1 5 3.4 1.8 1.4 1.3 4.3-.8 5-1.8.3-3-.4-4.4-1.3l-1-.6a1584 1584 0 0 0-12.9-8.2l-4.2-2.7-.3-.2-.4-.3c-1-.7-2.4-1.6-2.4-2.9-.3-2.4 2.2-4 4.4-2.9 3 1.7 6 3.7 9 5.6ZM384 395.5c-2-.6-4-1.3-6-1.7-2.5-.5-4.1 2-3.3 4.3a8.7 8.7 0 0 0 4 2.2l.5.2h.3l12 4 12.5 3.9c2.4.8 4.8.6 5.3-2.4-.2-2.1-2-2.8-3.7-3.5h-.1l-.3-.1-.5-.2-18.2-5.8-2.6-.9ZM587.1 395.3l10.4-.3c2.5 0 5 0 7.5-.2h1.3c1.7 0 3.6 0 4.4 1.6 1.2 1.7-.3 3.7-2 4.2-3 .6-6.1.6-9.2.5H596l-3 .1a80 80 0 0 1-5 0c-1.3 0-3.2-.3-3.5-1.6a3 3 0 0 1 2.6-4.3ZM360.3 402.9c-2-.1-4.2-.2-6.1.3-1.5 1.2-1.5 3.4-.1 4.8 1.6.7 3.6.8 5.4 1h.5l10.3.6 11.7.7 2.6.1c1.8.2 3.7.4 5.4 0 2-.6 2.6-3.1 1.2-4.6-.9-1-2-1-3-1.1l-1.2-.1-12.5-.9-12.5-.8h-1.7ZM349 411.6l4.5-.3c4.1-.3 8.4-.7 12.5-.4 3 .2 3.1 4.7.3 5.4-3 .7-6 .9-9 1-1.8 0-3.6 0-5.3.3l-3.6.2c-2.4.2-5 .5-7.3.1-2.5-.4-2.8-4.4-.5-5.3a19 19 0 0 1 5.7-.8c1 0 1.8 0 2.7-.2ZM345.5 425.4c3-1 2.8-5.3-.5-5.7-2.8 0-5.7.6-8.5 1l-4 .8-2.6.4c-2.2.2-4.8.6-6 2.1-1.2 2.4.5 4.6 3 4.4 6.2-.7 12.6-1.7 18.6-3Z" fill="#000"/></g><g transform="translate(-161 -83)"><path d="M477 628.9a37.2 37.2 0 0 1 27.4 11.6c5 5.1 8.4 11.4 11 18 .4 3.5 2.2 6.5-1.4 8.8-8.4.2-16.7.8-25 1-12.3 1-24.7.5-37 2-1.9-2-2.3-3.8-2.5-6.4-1-8.6 1.2-17.9 6.7-24.7A28 28 0 0 1 477 629Z" fill="#000"/><path d="M484.5 635.5c12.6 3 22 14 25.5 26.2-18.3.4-36.6 1.7-54.8 2.2a28 28 0 0 1 7.6-23.1c5.8-5.7 14-7 21.7-5.3Z" fill="#8F2E45"/></g><g transform="translate(-161 -83)"></g><g transform="translate(-161 -83)"></g><g transform="translate(-161 -83)"><g fill="#000"><path d="M546 236.8a220 220 0 0 1 141.8 52.3 189.7 189.7 0 0 1 60.4 97.9c5.5 21.9 6.6 44.4 4.3 66.8-.4 1.8-.5 5.6-3 5.6-4.2.2-8.5 0-12.7 1.2a64.9 64.9 0 0 0-31.2 17c-1 1-2 2.2-3.6 1.8-1.6 0-2.3-2-2.1-3.4.3-3 1.5-6 2.1-9 1.6-6.7 1.9-13.2 2.5-20 .6-6.8-.3-13.3-.9-20-.4-3.8-1.2-7.3-2-11a54.2 54.2 0 0 1-26.5-7c-15.8-9-27.3-25-35.5-40.8-9.8-19-16-40-20.2-60.8a441.8 441.8 0 0 1-91.2 25.9 561.7 561.7 0 0 1-101.2 9 386 386 0 0 1-71.2-6c-2-.4-3.5-1.1-3.6-3.3 1-3.8 4-7.3 6.5-10.3 9-11 19-21 29.9-30.1A242 242 0 0 1 546 236.8Z"/><path d="M718.6 474.6c0 1 .3 2.7-.5 3.5-2.2 2.4-5.1 4.2-7.6 6.4-2.6 2.2-4.8 4.9-7.5 6.9-2.7.5-4-2-2.7-4.1 2.7-3.8 6.7-6.8 10.2-9.8 2.7-2 4.5-4.7 8-3Z"/></g><path d="M520.2 243.8c41.3-4.2 83.5 2.8 120.8 21.2a194.1 194.1 0 0 1 79.2 70.7 181 181 0 0 1 26.4 118 68 68 0 0 0-38.6 14c2.8-16.5 3.5-33.4 0-49.8-.7-2.4-1.2-5.3-2.8-7.1-1.6-1.2-4.3-.8-6.2-1-8 .2-16-2.8-22.9-7a87.5 87.5 0 0 1-27.6-30.3 211 211 0 0 1-22.2-60.5c-.8-3.3-1.1-6.8-2.3-10-.9-1.4-2.4-1.8-4-1.2-3.6 1.3-7.1 3-10.7 4.3a443.8 443.8 0 0 1-82.3 22.5 588.4 588.4 0 0 1-81 8.7c-14.6.2-29.4.4-44-.4-14.3-1-28.4-2.4-42.5-4.8a232.8 232.8 0 0 1 160.7-87.3Z" fill="#b9a05f"/></g><g transform="translate(-161 -83)"><path d="M738 561c3.1-.8 8.3 1 7.2 5-.8 2.7-4.5 1.2-6.4 1.2-3.8 5.9-4 13.1-1.5 19.5.7 1.7 2.3 3 3.5 4.4 2-2.9 3-6 4-9.3.8-2 3.7-2 4.8-.4 1 1.2.5 3.2.3 4.6-.8 3.5-2.5 7.4-5.5 9.3a7.7 7.7 0 0 1-10-1.7c-4.7-5.3-5.2-13.8-4.4-20.5.7-4.7 3.1-10.5 8-12Z" fill="#000"/></g></g></svg>